<?xml version="1.0" encoding="UTF-8"?>
<svg width="789px" height="788px" viewBox="0 0 789 788" version="1.1" xmlns="http://www.w3.org/2000/svg" xmlns:xlink="http://www.w3.org/1999/xlink">
    <style>
        @media (prefers-color-scheme: dark) {
            ellipse { fill-opacity: 0; }
        }
    </style>
    <defs>
        <path d="M368.50563,748.070855 C550.783788,748.070855 612.664647,701.74164 689.517904,594.687536 C702.919457,576.019605 755.430136,461.450266 755.430136,437.413281 C755.430136,347.428877 700.162577,275.718849 700.169563,175.65073 C700.171379,149.633609 498.577876,0.438906825 382.145833,0.438906825 C175.867614,0.438906825 0.240631036,178.328241 0.240631036,384.923819 C0.240631036,591.519398 162.227412,748.070855 368.50563,748.070855 Z" id="path-1"></path>
    </defs>
    <g id="Page-1" stroke="none" stroke-width="1" fill="none" fill-rule="evenodd">
        <g id="favicon">
            <ellipse id="Oval" fill="#04212D" fill-rule="nonzero" cx="394.5" cy="394" rx="394.5" ry="394"></ellipse>
            <g id="logo" transform="translate(24.000000, 13.000000)">
                <g id="Group" transform="translate(376.698019, 379.404203) rotate(-90.130000) translate(-376.698019, -379.404203) translate(-1.801981, 4.404203)">
                    <g id="Clipped" transform="translate(0.140171, 0.144250)">
                        <g id="Shape-Clipped" transform="translate(0.000000, -0.000000)">
                            <mask id="mask-2" fill="white">
                                <use xlink:href="#path-1"></use>
                            </mask>
                            <g id="path-1"></g>
                            <path d="M557.403493,-11.4318607 C413.929728,-81.4818552 231.790903,-59.5023914 109.150761,42.6547655 C-16.0421928,142.308875 -74.1545171,316.643903 -33.7302152,471.33259 C3.12110626,626.403129 135.615867,752.93015 292.417795,782.781515 C449.028501,816.218481 620.917834,750.445241 715.027675,621.066732 C768.755282,549.231574 798.449169,460.020192 798.452993,370.361087 C800.593531,210.711174 702.598253,55.4974395 557.403493,-11.4318607 Z M328.477992,761.033563 C224.759253,758.63734 134.167895,693.289961 66.8577993,619.238146 C29.1641455,579.444281 1.4197654,529.672595 -4.0329261,474.458548 C-17.7397092,359.835797 5.63047081,239.198859 65.911251,140.260724 C100.525277,90.0250863 152.532843,54.0507068 203.973436,22.4685924 C306.114595,-38.661314 437.895142,-49.8858855 546.298816,1.63373325 C705.739606,75.1595455 817.365369,251.699775 800.604773,428.335468 C790.925122,538.156416 680.151531,673.949824 583.797702,724.220783 C494.549678,772.945237 429.022448,753.409866 328.468431,761.033563 L328.477992,761.033563 Z M691.614294,188.067286 C628.218685,150.113953 544.668116,150.122544 481.28763,188.088288 C545.1586,224.15813 586.727365,295.656303 586.430971,368.924364 C650.427192,332.704644 691.832463,261.528183 691.614294,188.069195 L691.614294,188.067286 Z M481.279981,551.280025 C544.811533,588.849596 628.243544,588.669171 691.61575,550.826441 C691.881444,477.47819 650.366001,406.094574 586.432884,369.971272 C587.018749,443.552586 544.396581,514.755777 481.279981,551.280025 Z M481.279981,551.280025 C417.923397,588.092572 334.354662,589.057706 270.916809,551.347518 C270.267993,624.792186 311.718774,696.652165 375.668146,732.937754 C439.999961,696.792496 481.758036,624.97834 481.27042,551.280025 L481.279981,551.280025 Z M270.491809,551.038685 C206.705932,514.827556 165.291101,443.241558 165.750033,369.983042 C101.720348,406.115891 60.0999534,477.85654 60.5588859,551.286889 C124.061755,588.780089 207.073078,588.683671 270.491809,551.039086 L270.491809,551.038685 Z M165.740185,369.384507 C165.282075,295.956067 206.897823,224.223055 270.921771,188.090206 C207.526943,150.121599 123.967769,150.118735 60.5681601,188.083524 C60.1908699,261.681888 101.601504,333.082688 165.740185,369.387371 L165.740185,369.384507 Z M270.93487,188.083457 C334.194887,149.506816 418.806737,151.178378 481.288481,187.548863 C481.768581,114.098467 440.147097,42.3301331 376.106895,6.1877382 C311.83149,42.5391977 270.294277,114.318987 270.93487,188.083457 L270.93487,188.083457 Z M481.246412,188.11369 C417.410817,224.184488 375.864043,295.653067 376.141315,368.882943 C440.019934,332.750094 481.495,261.419937 481.246412,188.11369 Z M376.647431,369.693245 C439.787934,406.76927 522.415858,406.672852 585.471267,369.447064 C522.080263,332.090376 439.970551,332.178202 376.647431,369.693245 L376.647431,369.693245 Z M376.114553,369.997839 C375.660239,443.116978 417.239683,515.693885 481.250001,550.82437 C481.463697,477.39593 440.098345,406.235697 376.114553,369.997839 Z M376.060437,370.012445 C312.224843,406.083243 270.678068,477.551821 270.95534,550.781697 C334.83396,514.648849 376.309026,443.318692 376.060437,370.012445 Z M375.105571,369.447283 C312.025303,332.109688 229.279778,332.209925 166.281735,369.691612 C229.680388,406.784821 311.77289,406.698904 375.105571,369.447283 Z M375.670211,369.139013 C377.046817,296.268079 334.670331,224.082571 270.928435,188.092918 C270.558555,261.516584 311.768645,332.767507 375.670211,369.139013 Z" id="Shape" fill-opacity="0.99123" fill="#FFFFFF" fill-rule="nonzero" mask="url(#mask-2)"></path>
                        </g>
                    </g>
                </g>
            </g>
        </g>
    </g>
</svg>