<?xml version="1.0" standalone="no"?>
<!DOCTYPE svg PUBLIC "-//W3C//DTD SVG 20010904//EN"
 "http://www.w3.org/TR/2001/REC-SVG-20010904/DTD/svg10.dtd">
<svg version="1.0" xmlns="http://www.w3.org/2000/svg"
 width="789.000000pt" height="789.000000pt" viewBox="0 0 789.000000 789.000000"
 preserveAspectRatio="xMidYMid meet">
<metadata>
Created by potrace 1.14, written by Peter Selinger 2001-2017
</metadata>
<g transform="translate(0.000000,789.000000) scale(0.100000,-0.100000)"
fill="#000000" stroke="none">
<path d="M3635 7880 c-1103 -97 -2090 -620 -2774 -1472 -397 -496 -681 -1115
-795 -1738 -49 -268 -61 -404 -61 -720 0 -315 12 -454 60 -716 245 -1327 1166
-2447 2420 -2944 1104 -437 2344 -358 3376 215 138 77 421 265 539 360 682
546 1160 1287 1370 2124 85 339 115 587 115 961 0 374 -30 622 -115 961 -398
1589 -1730 2754 -3375 2955 -152 18 -612 27 -760 14z m2161 -845 c270 -484
322 -1113 139 -1662 -43 -130 -152 -366 -166 -361 -4 2 -34 44 -66 93 -195
297 -490 555 -829 723 -257 129 -475 189 -777 215 l-138 12 45 72 c314 509
886 874 1501 958 55 7 136 13 179 12 l79 -2 33 -60z m-3394 40 c380 -50 771
-222 1066 -469 161 -134 341 -340 439 -503 l32 -51 -97 -7 c-437 -30 -828
-178 -1177 -444 -90 -68 -279 -255 -350 -346 -34 -44 -88 -120 -120 -168 -31
-49 -61 -85 -65 -80 -16 16 -111 212 -144 299 -172 448 -178 979 -15 1440 34
96 96 235 135 301 l25 43 79 0 c43 0 130 -7 192 -15z m1613 -1165 c87 -172
156 -394 192 -615 24 -153 24 -468 -1 -620 -35 -217 -93 -407 -181 -592 -24
-51 -42 -93 -40 -93 2 0 18 24 36 52 53 88 149 208 239 302 319 333 739 555
1185 626 132 21 315 36 315 26 0 -3 -23 -43 -51 -88 -308 -498 -860 -852
-1466 -943 -57 -8 -122 -15 -145 -15 -68 0 -39 -8 71 -19 527 -54 1046 -329
1382 -729 77 -92 209 -280 209 -297 0 -4 -55 -5 -122 -2 -636 32 -1267 402
-1623 951 -52 80 -57 91 -45 110 12 19 12 20 -3 8 -13 -11 -19 -7 -43 34 -84
143 -174 396 -213 595 -88 459 -18 954 192 1352 48 91 43 93 112 -43z m2095
-941 c573 -93 1100 -437 1414 -921 31 -47 56 -93 56 -101 0 -20 -110 -186
-184 -277 -185 -228 -460 -442 -731 -571 -250 -118 -573 -198 -802 -199 l-82
0 59 118 c281 563 280 1274 -1 1848 -32 67 -59 125 -59 129 0 11 199 -4 330
-26z m-4041 -96 c-144 -295 -212 -599 -211 -943 0 -346 82 -679 232 -952 l48
-88 -66 0 c-165 0 -392 41 -587 105 -476 156 -890 484 -1143 905 l-21 35 37
60 c317 526 905 902 1532 980 58 7 135 13 171 14 l65 1 -57 -117z m269 107
c384 -41 758 -189 1064 -421 104 -79 281 -250 361 -349 79 -98 177 -247 177
-270 0 -10 6 -20 14 -23 23 -9 122 -223 170 -367 78 -233 106 -413 106 -672 0
-335 -71 -639 -216 -930 -25 -49 -49 -88 -55 -88 -17 0 -136 257 -178 385 -70
214 -101 414 -101 650 0 325 65 613 201 895 67 139 66 141 -11 25 -353 -531
-970 -885 -1607 -922 -67 -3 -113 -2 -113 3 0 14 108 173 177 261 85 108 258
274 373 360 296 219 621 355 955 399 226 30 215 28 175 31 -106 9 -236 27
-315 44 -563 124 -1061 477 -1354 962 l-23 37 52 0 c28 0 94 -5 148 -10z m-50
-2314 c346 -452 882 -754 1444 -815 54 -6 124 -11 158 -11 33 0 60 -4 60 -8 0
-14 -128 -201 -188 -275 -83 -101 -283 -291 -381 -361 -354 -253 -786 -406
-1150 -406 l-91 0 -69 143 c-110 225 -175 452 -201 706 -36 364 30 752 186
1081 87 182 77 176 136 84 27 -43 71 -105 96 -138z m3546 107 c148 -296 217
-593 218 -933 0 -247 -30 -439 -103 -665 -51 -158 -162 -385 -188 -385 -10 0
-76 5 -147 10 -641 52 -1231 401 -1588 940 -31 46 -56 88 -56 92 0 4 25 8 55
8 229 0 567 81 808 193 364 170 687 452 887 774 25 40 48 72 52 73 4 0 32 -48
62 -107z"/>
</g>
</svg>
