<?xml version="1.0" standalone="no"?>
<!DOCTYPE svg PUBLIC "-//W3C//DTD SVG 20010904//EN"
 "http://www.w3.org/TR/2001/REC-SVG-20010904/DTD/svg10.dtd">
<svg version="1.0" xmlns="http://www.w3.org/2000/svg"
 width="700.000000pt" height="700.000000pt" viewBox="0 0 700.000000 700.000000"
 preserveAspectRatio="xMidYMid meet">
<metadata>
Created by potrace 1.14, written by Peter Selinger 2001-2017
</metadata>
<g transform="translate(0.000000,700.000000) scale(0.100000,-0.100000)"
fill="#000000" stroke="none">
<path d="M4977 6454 c-1 -1 -34 -5 -73 -8 -39 -4 -82 -9 -95 -11 -13 -3 -49
-9 -79 -15 -285 -52 -614 -209 -869 -415 -45 -36 -236 -229 -274 -276 -79 -99
-175 -246 -165 -254 2 -1 53 -5 113 -9 61 -3 135 -10 165 -16 30 -5 66 -11 80
-14 290 -52 619 -207 870 -409 151 -122 355 -351 432 -487 13 -22 26 -40 31
-40 6 0 94 174 128 255 29 67 79 247 94 333 3 17 8 47 11 65 26 142 30 434 8
588 -29 196 -90 400 -172 569 -72 149 -71 148 -142 147 -33 -1 -62 -2 -63 -3z"/>
<path d="M1651 6344 c-30 -60 -58 -118 -62 -129 -65 -159 -112 -341 -135 -525
-10 -79 -12 -331 -2 -409 15 -128 19 -157 34 -221 56 -247 140 -444 287 -674
170 -264 443 -509 744 -664 184 -95 450 -179 624 -198 35 -4 71 -8 79 -10 8
-1 37 -3 64 -3 70 -1 54 -8 -34 -15 -192 -14 -456 -81 -603 -152 -28 -13 -56
-24 -63 -24 -6 0 -17 -6 -23 -14 -7 -8 -23 -17 -36 -20 -14 -4 -76 -38 -138
-77 -261 -165 -484 -385 -632 -627 -45 -73 -38 -78 -116 79 -80 161 -152 402
-176 585 -10 76 -10 397 -1 492 21 208 95 455 199 662 21 41 36 77 34 81 -4 6
-21 6 -166 -6 -79 -6 -103 -9 -184 -25 -64 -13 -82 -17 -125 -29 -19 -5 -51
-14 -70 -19 -97 -27 -261 -97 -376 -160 -290 -159 -520 -371 -699 -642 l-67
-101 42 -66 c97 -155 282 -365 409 -464 24 -19 48 -39 55 -44 6 -6 56 -41 112
-78 304 -202 669 -318 1032 -329 28 0 52 -3 52 -5 0 -3 -17 -37 -39 -76 -74
-138 -158 -376 -186 -532 -32 -177 -40 -428 -19 -602 26 -218 105 -475 202
-657 l49 -91 69 0 c298 3 656 109 940 281 248 149 457 350 628 602 31 45 56
86 56 91 0 4 -24 9 -52 10 -132 5 -217 15 -323 37 -38 8 -81 17 -95 20 -14 3
-79 23 -145 45 -412 137 -786 423 -1019 781 -31 47 -56 88 -56 90 0 3 24 6 53
7 63 2 170 11 200 17 12 2 41 7 65 10 24 3 78 14 120 25 42 11 85 21 95 24 30
7 138 46 202 72 347 144 651 387 860 688 70 101 71 100 20 -7 -124 -262 -183
-541 -180 -846 2 -152 6 -188 31 -332 22 -120 46 -210 89 -325 46 -124 134
-297 146 -289 30 18 146 292 184 436 113 425 89 855 -72 1256 -49 122 -107
231 -130 245 -7 5 -11 12 -8 17 6 9 -56 108 -135 215 -62 85 -261 280 -354
349 -163 120 -309 203 -471 268 -90 37 -266 92 -321 101 -173 29 -228 36 -329
39 -36 1 -65 5 -65 8 0 14 76 132 140 215 80 106 211 240 316 325 73 59 236
170 248 170 4 0 23 11 44 25 61 40 258 124 377 160 171 51 272 70 450 81 55 3
101 7 102 8 1 1 -14 29 -35 62 -243 392 -663 707 -1117 838 -157 44 -265 63
-430 72 l-110 7 -54 -109z m1716 -2840 c-3 -3 -12 -4 -19 -1 -8 3 -5 6 6 6 11
1 17 -2 13 -5z m24 -47 c-10 -9 -11 -8 -5 6 3 10 9 15 12 12 3 -3 0 -11 -7
-18z"/>
<path d="M3347 5348 c-60 -124 -106 -247 -137 -367 -20 -80 -24 -101 -45 -236
-14 -92 -17 -396 -5 -470 4 -27 11 -72 14 -100 16 -118 81 -340 133 -455 31
-69 85 -175 95 -187 6 -7 13 -11 17 -9 3 2 7 -6 7 -19 2 -26 99 -174 176 -266
192 -233 450 -425 738 -551 123 -53 297 -110 335 -109 2 0 19 -5 37 -10 67
-19 213 -38 321 -41 38 -1 70 -5 73 -10 7 -12 -100 -170 -180 -266 -364 -434
-901 -699 -1443 -711 l-63 -1 32 -53 c87 -143 279 -366 400 -465 120 -96 264
-190 394 -254 135 -68 348 -145 449 -162 17 -3 55 -10 85 -16 94 -18 151 -23
250 -24 l95 -1 60 121 c72 144 142 353 161 474 3 19 7 42 9 50 19 73 27 417
13 550 -8 73 -34 219 -48 265 -115 384 -259 637 -510 894 -308 317 -780 542
-1210 577 -90 7 -116 14 -59 15 220 4 549 98 784 223 256 136 488 334 653 558
66 90 122 179 122 194 0 20 -309 -15 -455 -52 -163 -41 -404 -144 -559 -237
-212 -129 -452 -358 -589 -564 -27 -40 -50 -73 -51 -73 -1 0 16 39 39 88 23
48 46 98 50 112 4 14 13 39 20 55 20 46 42 121 64 217 39 168 45 227 46 438 0
160 -7 274 -20 338 -29 141 -43 195 -76 296 -35 108 -141 340 -160 352 -4 2
-32 -46 -62 -108z"/>
<path d="M5117 4479 c20 -24 93 -178 129 -270 38 -98 88 -282 104 -381 29
-183 32 -475 6 -613 -2 -11 -7 -40 -11 -65 -14 -88 -68 -287 -94 -345 -5 -11
-19 -45 -31 -75 -12 -30 -39 -87 -60 -126 -22 -40 -37 -74 -35 -76 7 -7 239 8
267 17 7 2 32 6 54 9 73 9 242 56 349 96 385 144 721 407 946 740 49 73 69
108 69 122 0 12 -57 100 -128 196 -74 102 -223 259 -307 324 -16 12 -39 31
-50 41 -39 36 -211 146 -305 195 -185 97 -424 177 -590 198 -19 3 -44 7 -55 9
-11 3 -76 8 -145 12 -107 5 -123 4 -113 -8z"/>
</g>
</svg>
