<?xml version="1.0" encoding="UTF-8"?>
<svg width="2657px" height="1680px" viewBox="0 0 2657 1680" version="1.1" xmlns="http://www.w3.org/2000/svg" xmlns:xlink="http://www.w3.org/1999/xlink">
    <defs>
        <path d="M578.401499,1112.6918 C853.004731,1112.6918 935.344173,1013.26388 1048.00165,780.591799 C1063.13802,749.330591 1112.70987,587.748511 1112.70987,551.592264 C1112.70987,240.832784 889.160979,-12.6678309 578.401499,-12.6678309 C267.642019,-12.6678309 15.7216857,239.252502 15.7216857,550.011982 C15.7216857,860.771462 267.642019,1112.6918 578.401499,1112.6918 Z" id="path-1"></path>
    </defs>
    <g id="logo-main" stroke="none" stroke-width="1" fill="none" fill-rule="evenodd">
        <g id="logo" transform="translate(777.000000, 0.000000)">
            <g id="Group" transform="translate(552.022950, 566.467715) rotate(-90.130000) translate(-552.022950, -566.467715) translate(-12.977050, 15.967715)">
                <g id="Clipped" transform="translate(0.193480, 0.223718)">
                    <mask id="mask-2" fill="white">
                        <use xlink:href="#path-1"></use>
                    </mask>
                    <g id="Oval" transform="translate(564.215780, 550.011982) rotate(90.126000) translate(-564.215780, -550.011982) "></g>
                    <path d="M1199.51899,551.929237 C1202.73155,311.411481 1055.32915,77.5811661 836.93028,-23.24818 C621.1201,-128.778869 347.15076,-95.6666899 162.678071,58.2336095 C-25.6345033,208.363055 -113.045824,470.999701 -52.2404498,704.039028 C3.19052285,937.653619 202.48632,1128.26725 438.344439,1173.23849 C673.914927,1223.61146 932.4672,1124.52372 1074.02522,929.614309 C1154.84114,821.394262 1199.50605,686.996841 1199.5118,551.924923 L1199.51899,551.929237 Z M482.035718,1149.49016 C326.024201,1145.88024 189.75861,1047.43407 88.5121977,935.874616 C31.8142067,875.924947 -9.91829886,800.943638 -18.1201212,717.763382 C-38.7375724,545.083599 -3.58464545,363.343412 87.08842,214.292586 C139.1541,138.612331 217.382773,84.4167371 294.758618,36.8381141 C448.397173,-55.2544145 646.618664,-72.1642912 809.677162,5.45028813 C1049.5046,116.217315 1217.4097,382.176108 1192.19876,648.278717 C1177.63884,813.724559 1065.8953,958.619105 920.961926,1034.35257 C786.716949,1107.75622 633.272546,1138.00502 482.021336,1149.49016 L482.035718,1149.49016 Z M1038.80601,277.298343 C943.448984,220.121446 817.773999,220.134389 722.438421,277.329983 C818.511774,331.669393 881.038625,439.381769 880.592795,549.760493 C976.854548,495.195292 1039.13547,387.967575 1038.80601,277.30122 L1038.80601,277.298343 Z M880.595672,551.330675 C881.476918,662.188306 817.365561,769.456291 722.426915,824.480265 C817.989722,881.079023 943.486376,880.80721 1038.8095,823.796938 C1039.20915,713.297409 976.762505,605.757611 880.595672,551.337665 L880.595672,551.330675 Z M722.426915,824.480265 C627.127292,879.938562 501.424981,881.392541 406.003114,824.581942 C405.027179,935.226726 467.37656,1043.48416 563.567843,1098.1486 C660.334389,1043.69557 723.145995,935.507167 722.412534,824.480265 L722.426915,824.480265 Z M405.363837,824.116684 C309.41848,769.564426 247.123173,661.719739 247.81349,551.355397 C151.501402,605.789725 88.8968909,713.867394 89.5872073,824.490605 C185.106869,880.97431 309.970733,880.829056 405.363837,824.117288 L405.363837,824.116684 Z M247.798677,550.4537 C247.109597,439.833366 309.707119,331.767202 406.010578,277.332874 C310.653428,220.132965 184.965498,220.128651 89.6011575,277.322807 C89.0336454,388.199133 151.322639,495.764818 247.798677,550.458014 L247.798677,550.4537 Z M406.03028,277.322706 C501.18465,219.206791 628.455993,221.725007 722.439701,276.517337 C723.161858,165.863925 660.555707,57.7445491 564.2278,3.29583926 C467.546105,58.059506 405.066714,166.196139 406.03028,277.322706 L406.03028,277.322706 Z M722.376422,277.368252 C626.35628,331.7091 563.862507,439.376894 564.279574,549.698091 C660.364432,495.263763 722.750343,387.804502 722.376422,277.368252 Z M565.040863,550.918815 C660.015463,606.774045 784.302625,606.628791 879.149229,550.547943 C783.797831,494.269894 660.290151,494.402205 565.040863,550.918815 L565.040863,550.918815 Z M564.239319,551.377689 C563.555949,661.532059 626.098864,770.869556 722.380571,823.793817 C722.703258,713.173482 660.482376,605.970214 564.239319,551.377689 Z M564.15792,551.399692 C468.137778,605.74054 405.644005,713.408334 406.061071,823.729531 C502.14593,769.295203 564.531841,661.835942 564.15792,551.399692 Z M562.72163,550.548273 C467.837634,494.298988 343.373579,494.449995 248.613265,550.916356 C343.976167,606.797472 467.45796,606.668038 562.72163,550.548273 Z M563.570949,550.083863 C565.641611,440.303414 501.899804,331.555562 406.020602,277.336958 C405.464235,387.950102 467.451575,495.289995 563.570949,550.083863 Z" id="Shape" fill-opacity="0.99123" fill="#FFFFFF" fill-rule="nonzero" mask="url(#mask-2)"></path>
                </g>
            </g>
        </g>
        <path d="M310,1575.4375 C278.642436,1615.8127 235.592866,1636 180.85,1636 C134.61088,1636 96.743203,1621.39077 67.2458333,1592.17188 C37.7484636,1562.95298 23,1526.03147 23,1481.40625 C23,1453.78111 29.8427556,1428.28137 43.5284722,1404.90625 C57.2141888,1381.53113 76.1480272,1363.20319 100.330556,1349.92188 C124.513084,1336.64056 150.621851,1330 178.657639,1330 C206.693427,1330 231.805676,1335.37885 253.995139,1346.13672 C276.184602,1356.89459 294.719833,1372.63271 309.601389,1393.35156 L283.293056,1413.67188 C255.65588,1380.20296 221.508537,1363.46875 180.85,1363.46875 C147.632241,1363.46875 118.998963,1375.15613 94.9493056,1398.53125 C70.8996483,1421.90637 58.875,1450.52717 58.875,1484.39453 C58.875,1518.26189 70.6339102,1546.55067 94.1520833,1569.26172 C117.670256,1591.97277 148.163702,1603.32812 185.633333,1603.32812 C223.102965,1603.32812 255.65588,1587.25797 283.293056,1555.11719 L310,1575.4375 Z M447,1415.73703 L429.864662,1443.53667 C425.348348,1441.15383 420.964934,1439.96243 416.714286,1439.96243 C408.478656,1439.96243 401.040133,1443.99996 394.398496,1452.07513 C387.756859,1460.15031 382.775706,1470.74054 379.454887,1483.84615 C376.134069,1496.95176 374.473684,1520.58122 374.473684,1554.73524 L374.473684,1629 L341,1629 L341,1412.55993 L374.473684,1412.55993 L374.473684,1435.99106 C381.115321,1426.19494 387.823274,1418.91416 394.597744,1414.14848 C401.372214,1409.3828 409.076398,1407 417.710526,1407 C426.344655,1407 436.107715,1409.91231 447,1415.73703 Z M689,1525.98267 L499.330961,1525.98267 C500.653625,1549.8996 508.655621,1569.09929 523.337189,1583.58232 C538.018757,1598.06535 555.543789,1605.30676 575.912811,1605.30676 C610.566603,1605.30676 637.019482,1588.16655 655.272242,1553.88562 L683.048043,1568.2357 C670.615003,1591.3554 655.933655,1608.42918 639.003559,1619.45754 C622.073462,1630.4859 601.83701,1636 578.293594,1636 C545.756065,1636 518.906393,1624.7725 497.743772,1602.31716 C476.581152,1579.86182 466,1552.8228 466,1521.19931 C466,1489.57581 476.647284,1462.47036 497.942171,1439.88215 C519.237058,1417.29394 545.623805,1406 577.103203,1406 C608.582601,1406 634.903216,1416.69602 656.065836,1438.08839 C677.228457,1459.48075 688.206406,1488.77855 689,1525.98267 Z M653,1497 C649.010618,1478.3963 639.968156,1463.91221 625.87234,1453.5473 C611.776525,1443.18238 595.553283,1438 577.202128,1438 C539.967899,1438 515.234104,1457.66647 503,1497 L653,1497 Z M950,1628.82496 L917.857143,1628.82496 L917.857143,1596.93588 C894.312052,1622.97876 867.195921,1636 836.507937,1636 C805.819952,1636 779.563601,1624.63963 757.738095,1601.91854 C735.912589,1579.19746 725,1552.09201 725,1520.60139 C725,1489.11076 735.978726,1462.13818 757.936508,1439.68284 C779.89429,1417.2275 806.679736,1406 838.293651,1406 C869.907565,1406 896.428464,1418.88837 917.857143,1444.66551 L917.857143,1411.58059 L950,1411.58059 L950,1628.82496 Z M839.199017,1606 C861.223697,1606 880.196481,1598.0477 896.117936,1582.14286 C912.039392,1566.23802 920,1546.42353 920,1522.69881 C920,1498.97409 912.172068,1479.09333 896.515971,1463.05595 C880.859873,1447.01857 861.688074,1439 839,1439 C816.311926,1439 797.140127,1447.28365 781.484029,1463.85119 C765.827932,1480.41873 758,1499.96814 758,1522.5 C758,1545.03186 765.960608,1564.58127 781.882064,1581.14881 C797.803519,1597.71635 816.908979,1606 839.199017,1606 Z M1106,1440.36719 L1062.8,1440.36719 L1062.8,1592.57031 C1062.8,1598.14847 1063.59999,1601.53515 1065.2,1602.73047 C1066.80001,1603.92578 1070.79997,1604.52344 1077.2,1604.52344 L1096.4,1604.52344 L1096.4,1632.8125 C1083.59994,1634.93751 1073.8667,1636 1067.2,1636 C1054.39994,1636 1044.93336,1632.87894 1038.8,1626.63672 C1032.66664,1620.3945 1029.6,1610.50007 1029.6,1596.95312 L1029.6,1440.36719 L992,1440.36719 L992,1411.67969 L1029.6,1411.67969 L1029.6,1330 L1062.8,1330 L1062.8,1411.67969 L1106,1411.67969 L1106,1440.36719 Z M1243.69841,1406 C1274.9155,1406 1301.4364,1417.29394 1323.2619,1439.88215 C1345.08741,1462.47036 1356,1489.57581 1356,1521.19931 C1356,1552.8228 1345.21968,1579.86182 1323.65873,1602.31716 C1302.09778,1624.7725 1275.4446,1636 1243.69841,1636 C1211.95222,1636 1185.23291,1624.7725 1163.53968,1602.31716 C1141.84645,1579.86182 1131,1552.8228 1131,1521.19931 C1131,1489.57581 1141.91259,1462.47036 1163.7381,1439.88215 C1185.5636,1417.29394 1212.21677,1406 1243.69841,1406 Z M1244.5,1605 C1266.49511,1605 1285.24367,1596.9721 1300.74625,1580.91607 C1316.24883,1564.86003 1324,1545.48692 1324,1522.79616 C1324,1500.1054 1316.11633,1480.46691 1300.34875,1463.8801 C1284.58117,1447.29328 1265.89886,1439 1244.30125,1439 C1222.70364,1439 1204.08758,1447.29328 1188.4525,1463.8801 C1172.81742,1480.46691 1165,1500.17175 1165,1522.9952 C1165,1545.81866 1172.55242,1565.19177 1187.6575,1581.11511 C1202.76258,1597.03845 1221.70989,1605 1244.5,1605 Z M1494,1415.73703 L1476.86466,1443.53667 C1472.34835,1441.15383 1467.96493,1439.96243 1463.71429,1439.96243 C1455.47866,1439.96243 1448.04013,1443.99996 1441.3985,1452.07513 C1434.75686,1460.15031 1429.77571,1470.74054 1426.45489,1483.84615 C1423.13407,1496.95176 1421.47368,1520.58122 1421.47368,1554.73524 L1421.47368,1629 L1388,1629 L1388,1412.55993 L1421.47368,1412.55993 L1421.47368,1435.99106 C1428.11532,1426.19494 1434.82327,1418.91416 1441.59774,1414.14848 C1448.37221,1409.3828 1456.0764,1407 1464.71053,1407 C1473.34465,1407 1483.10771,1409.91231 1494,1415.73703 Z M1636,1437.09185 L1614.8,1459.0156 C1599.06659,1444.3997 1584.66673,1437.09185 1571.6,1437.09185 C1563.33329,1437.09185 1556.40003,1439.68282 1550.8,1444.86482 C1545.19997,1450.04682 1542.4,1456.42457 1542.4,1463.99827 C1542.4,1471.57196 1545.5333,1478.21545 1551.8,1483.92894 C1558.0667,1489.64243 1569.19992,1496.68453 1585.2,1505.05546 C1601.20008,1513.42639 1613.53329,1522.66084 1622.2,1532.7591 C1630.86671,1542.85736 1635.2,1555.21425 1635.2,1569.83016 C1635.2,1588.43221 1628.7334,1604.11085 1615.8,1616.86655 C1602.8666,1629.62225 1586.93343,1636 1568,1636 C1541.59987,1636 1519.60009,1624.83893 1502,1602.51646 L1522.8,1579.39688 C1537.20007,1596.13873 1551.86659,1604.50953 1566.8,1604.50953 C1576.93338,1604.50953 1585.59996,1601.18779 1592.8,1594.54419 C1600.00004,1587.9006 1603.6,1580.12772 1603.6,1571.2253 C1603.6,1562.32289 1600.33337,1554.88218 1593.8,1548.90295 C1587.26663,1542.92371 1576.06675,1535.94805 1560.2,1527.97574 C1544.33325,1520.00343 1532.33337,1511.16758 1524.2,1501.46794 C1516.06663,1491.76829 1512,1479.01279 1512,1463.20104 C1512,1447.38929 1517.79994,1433.903 1529.4,1422.74177 C1541.00006,1411.58053 1556.33324,1406 1575.4,1406 C1594.46676,1406 1614.66656,1416.36385 1636,1437.09185 Z M2104,1337 L2020.47458,1636 L2010.53107,1636 L1927.80113,1417.92933 L1843.48023,1636 L1833.93446,1636 L1752,1337 L1787.39887,1337 L1843.48023,1543.50933 L1923.02825,1337 L1932.57401,1337 L2011.32655,1543.908 L2068.60113,1337 L2104,1337 Z M2360,1525.98267 L2170.33096,1525.98267 C2171.65362,1549.8996 2179.65562,1569.09929 2194.33719,1583.58232 C2209.01876,1598.06535 2226.54379,1605.30676 2246.91281,1605.30676 C2281.5666,1605.30676 2308.01948,1588.16655 2326.27224,1553.88562 L2354.04804,1568.2357 C2341.615,1591.3554 2326.93366,1608.42918 2310.00356,1619.45754 C2293.07346,1630.4859 2272.83701,1636 2249.29359,1636 C2216.75607,1636 2189.90639,1624.7725 2168.74377,1602.31716 C2147.58115,1579.86182 2137,1552.8228 2137,1521.19931 C2137,1489.57581 2147.64728,1462.47036 2168.94217,1439.88215 C2190.23706,1417.29394 2216.6238,1406 2248.1032,1406 C2279.5826,1406 2305.90322,1416.69602 2327.06584,1438.08839 C2348.22846,1459.48075 2359.20641,1488.77855 2360,1525.98267 Z M2324,1497 C2320.01062,1478.3963 2310.96816,1463.91221 2296.87234,1453.5473 C2282.77653,1443.18238 2266.55328,1438 2248.20213,1438 C2210.9679,1438 2186.2341,1457.66647 2174,1497 L2324,1497 Z M2441.14286,1443.55469 C2463.62974,1418.58581 2490.6136,1406.10156 2522.09524,1406.10156 C2553.57688,1406.10156 2580.09778,1417.32411 2601.65873,1439.76953 C2623.21968,1462.21496 2634,1489.24203 2634,1520.85156 C2634,1552.4611 2623.02127,1579.55457 2601.06349,1602.13281 C2579.10571,1624.71105 2552.58481,1636 2521.5,1636 C2490.41519,1636 2463.62974,1622.45326 2441.14286,1595.35938 L2441.14286,1628.82812 L2409,1628.82812 L2409,1330 L2441.14286,1330 L2441.14286,1443.55469 Z M2519.80098,1605 C2542.35638,1605 2561.52818,1596.62004 2577.31695,1579.85986 C2593.10573,1563.09968 2601,1543.47992 2601,1521 C2601,1498.52008 2593.30475,1478.90032 2577.914,1462.14014 C2562.52326,1445.37996 2543.28513,1437 2520.19902,1437 C2497.11291,1437 2477.80843,1444.8479 2462.28501,1460.54394 C2446.76159,1476.23998 2439,1495.99276 2439,1519.80285 C2439,1543.61295 2446.82793,1563.76476 2462.48403,1580.25891 C2478.14013,1596.75305 2497.24559,1605 2519.80098,1605 Z" id="CreatorsWeb" fill="#FFFFFF" fill-rule="nonzero"></path>
    </g>
</svg>