<?xml version="1.0" encoding="UTF-8"?>
<svg width="2077px" height="1221px" viewBox="0 0 2077 1221" version="1.1" xmlns="http://www.w3.org/2000/svg" xmlns:xlink="http://www.w3.org/1999/xlink">
    <g id="Page-1" stroke="none" stroke-width="1" fill="none" fill-rule="evenodd">
        <g id="logo-main" transform="translate(-290.000000, -269.000000)" fill="#FFFFFF" fill-rule="nonzero">
            <g id="logo" transform="translate(290.000000, 268.500000)">
                <path d="M228.302949,1173.40625 C203.358613,1205.46891 169.113513,1221.5 125.566622,1221.5 C88.7842963,1221.5 58.6612917,1209.89855 35.1967046,1186.69531 C11.7321176,1163.49207 0,1134.17205 0,1098.73438 C0,1076.79677 5.44327977,1056.54697 16.3300026,1037.98438 C27.2167254,1019.42178 42.2782277,1004.86724 61.5149613,994.320312 C80.7516948,983.773385 101.520714,978.5 123.822641,978.5 C146.124568,978.5 166.100877,982.771442 183.752165,991.314453 C201.403454,999.857465 216.147872,1012.35539 227.985862,1028.80859 L207.058091,1044.94531 C185.073253,1018.36705 157.909701,1005.07812 125.566622,1005.07812 C99.1425374,1005.07812 76.3653182,1014.35928 57.234281,1032.92188 C38.1032438,1051.48447 28.5378686,1074.21276 28.5378686,1101.10742 C28.5378686,1128.00209 37.8918543,1150.46671 56.6001061,1168.50195 C75.308358,1186.5372 99.5653038,1195.55469 129.371671,1195.55469 C159.178039,1195.55469 185.073253,1182.7931 207.058091,1157.26953 L228.302949,1173.40625 Z M337.283799,1046.58529 L323.652969,1068.66148 C320.060329,1066.76922 316.573407,1065.82311 313.192099,1065.82311 C306.640815,1065.82311 300.723614,1069.02938 295.44032,1075.44202 C290.157026,1081.85466 286.194615,1090.26455 283.552968,1100.67195 C280.911322,1111.07934 279.590518,1129.84391 279.590518,1156.96622 L279.590518,1215.94118 L252.962849,1215.94118 L252.962849,1044.0623 L279.590518,1044.0623 L279.590518,1062.66937 C284.873812,1054.8901 290.209859,1049.1083 295.598818,1045.32379 C300.987778,1041.53928 307.116307,1039.64706 313.984589,1039.64706 C320.852872,1039.64706 328.619197,1041.95978 337.283799,1046.58529 Z M529.790119,1134.1333 L378.912067,1134.1333 C379.96422,1153.12615 386.329653,1168.37297 398.008556,1179.8742 C409.68746,1191.37543 423.628284,1197.12596 439.831447,1197.12596 C467.397868,1197.12596 488.440622,1183.51461 502.96034,1156.29152 L525.055452,1167.68718 C515.165209,1186.04694 503.486481,1199.60552 490.018917,1208.36334 C476.551352,1217.12116 460.453646,1221.5 441.725314,1221.5 C415.842339,1221.5 394.483944,1212.58404 377.649489,1194.75186 C360.815033,1176.91968 352.397932,1155.44752 352.397932,1130.33474 C352.397932,1105.22197 360.86764,1083.69705 377.807311,1065.75935 C394.746982,1047.82166 415.737128,1038.85294 440.778381,1038.85294 C465.819633,1038.85294 486.757173,1047.34684 503.591628,1064.3349 C520.426084,1081.32295 529.15883,1104.58885 529.790119,1134.1333 Z M501.152815,1111.11765 C497.979339,1096.34412 490.786235,1084.84205 479.573287,1076.61109 C468.360338,1068.38013 455.455063,1064.26471 440.857074,1064.26471 C411.237965,1064.26471 391.562709,1079.8822 381.830716,1111.11765 L501.152815,1111.11765 Z M737.410571,1215.80217 L711.841549,1215.80217 L711.841549,1190.47849 C693.111885,1211.1596 671.541527,1221.5 647.129829,1221.5 C622.718131,1221.5 601.831712,1212.47853 584.469944,1194.43531 C567.108176,1176.3921 558.427422,1154.86719 558.427422,1129.85992 C558.427422,1104.85266 567.160787,1083.43326 584.627777,1065.60108 C602.094768,1047.7689 623.402073,1038.85294 648.55033,1038.85294 C673.698588,1038.85294 694.79545,1049.08783 711.841549,1069.55791 L711.841549,1043.28459 L737.410571,1043.28459 L737.410571,1215.80217 Z M649.270532,1197.67647 C666.790739,1197.67647 681.883221,1191.36141 694.548431,1178.73109 C707.213641,1166.10078 713.546151,1150.36575 713.546151,1131.52553 C713.546151,1112.6853 707.319183,1096.89765 694.86506,1084.16208 C682.410937,1071.42651 667.160142,1065.05882 649.112218,1065.05882 C631.064293,1065.05882 615.813499,1071.63701 603.359375,1084.79359 C590.905252,1097.95017 584.678284,1113.4747 584.678284,1131.36765 C584.678284,1149.26059 591.010794,1164.78512 603.676004,1177.9417 C616.341214,1191.09828 631.539238,1197.67647 649.270532,1197.67647 Z M861.505553,1066.14453 L827.140789,1066.14453 L827.140789,1187.01172 C827.140789,1191.44143 827.777167,1194.13085 829.049943,1195.08008 C830.322718,1196.0293 833.504609,1196.50391 838.59571,1196.50391 L853.868939,1196.50391 L853.868939,1218.96875 C843.686736,1220.65626 835.944135,1221.5 830.640904,1221.5 C820.458701,1221.5 812.928226,1219.02151 808.049253,1214.06445 C803.170281,1209.1074 800.730831,1201.25005 800.730831,1190.49219 L800.730831,1066.14453 L770.820758,1066.14453 L770.820758,1043.36328 L800.730831,1043.36328 L800.730831,978.5 L827.140789,978.5 L827.140789,1043.36328 L861.505553,1043.36328 L861.505553,1066.14453 Z M971.041977,1038.85294 C995.874567,1038.85294 1016.97143,1047.82166 1034.3332,1065.75935 C1051.69496,1083.69705 1060.37572,1105.22197 1060.37572,1130.33474 C1060.37572,1155.44752 1051.80019,1176.91968 1034.64886,1194.75186 C1017.49754,1212.58404 996.295458,1221.5 971.041977,1221.5 C945.788497,1221.5 924.533803,1212.58404 907.277258,1194.75186 C890.020713,1176.91968 881.39257,1155.44752 881.39257,1130.33474 C881.39257,1105.22197 890.073324,1083.69705 907.435091,1065.75935 C924.796859,1047.82166 945.998943,1038.85294 971.041977,1038.85294 Z M971.679625,1196.88235 C989.176309,1196.88235 1004.09043,1190.50726 1016.42243,1177.75688 C1028.75443,1165.0065 1034.92034,1149.62197 1034.92034,1131.60284 C1034.92034,1113.5837 1028.64903,1097.98843 1016.10623,1084.81655 C1003.56342,1071.64467 988.702002,1065.05882 971.521523,1065.05882 C954.341043,1065.05882 939.532325,1071.64467 927.094922,1084.81655 C914.65752,1097.98843 908.438912,1113.63639 908.438912,1131.7609 C908.438912,1149.88541 914.44672,1165.26993 926.462515,1177.91494 C938.478311,1190.55994 953.55053,1196.88235 971.679625,1196.88235 Z M1170.15205,1046.58529 L1156.52122,1068.66148 C1152.92858,1066.76922 1149.44166,1065.82311 1146.06035,1065.82311 C1139.50906,1065.82311 1133.59186,1069.02938 1128.30857,1075.44202 C1123.02528,1081.85466 1119.06287,1090.26455 1116.42122,1100.67195 C1113.77957,1111.07934 1112.45877,1129.84391 1112.45877,1156.96622 L1112.45877,1215.94118 L1085.8311,1215.94118 L1085.8311,1044.0623 L1112.45877,1044.0623 L1112.45877,1062.66937 C1117.74206,1054.8901 1123.07811,1049.1083 1128.46707,1045.32379 C1133.85603,1041.53928 1139.98456,1039.64706 1146.85284,1039.64706 C1153.72112,1039.64706 1161.48745,1041.95978 1170.15205,1046.58529 Z M1283.1103,1063.54353 L1266.24611,1080.95356 C1253.73049,1069.34682 1242.27568,1063.54353 1231.88135,1063.54353 C1225.30534,1063.54353 1219.79006,1065.60106 1215.33535,1069.71618 C1210.88064,1073.8313 1208.65331,1078.89598 1208.65331,1084.91039 C1208.65331,1090.92479 1211.14579,1096.20051 1216.13083,1100.73769 C1221.11587,1105.27487 1229.97213,1110.86713 1242.69989,1117.51463 C1255.42764,1124.16213 1265.23847,1131.49537 1272.13267,1139.51458 C1279.02687,1147.53378 1282.47392,1157.34661 1282.47392,1168.95336 C1282.47392,1183.72558 1277.32986,1196.17627 1267.04159,1206.30579 C1256.75333,1216.43531 1244.07879,1221.5 1229.01762,1221.5 C1208.01682,1221.5 1190.51642,1212.6368 1176.51589,1194.91013 L1193.06189,1176.55046 C1204.51687,1189.84546 1216.1838,1196.49286 1228.06304,1196.49286 C1236.12395,1196.49286 1243.01805,1193.85501 1248.74554,1188.57921 C1254.47303,1183.30342 1257.33673,1177.13083 1257.33673,1170.06127 C1257.33673,1162.99171 1254.73819,1157.08291 1249.54102,1152.33469 C1244.34385,1147.58648 1235.43456,1142.04698 1222.81287,1135.71603 C1210.19118,1129.38507 1200.64551,1122.36837 1194.17556,1114.66572 C1187.70562,1106.96306 1184.4707,1096.83368 1184.4707,1084.2773 C1184.4707,1071.72091 1189.08444,1061.01121 1198.31206,1052.14787 C1207.53969,1043.28454 1219.73693,1038.85294 1234.90417,1038.85294 C1250.07142,1038.85294 1266.13996,1047.08306 1283.1103,1063.54353 Z M1655.39525,984.058824 L1588.95239,1221.5 L1581.04253,1221.5 L1515.23246,1048.32624 L1448.15681,1221.5 L1440.56334,1221.5 L1375.38606,984.058824 L1403.54518,984.058824 L1448.15681,1148.05153 L1511.43572,984.058824 L1519.02919,984.058824 L1581.67532,1148.36812 L1627.23613,984.058824 L1655.39525,984.058824 Z M1859.0383,1134.1333 L1708.16025,1134.1333 C1709.2124,1153.12615 1715.57783,1168.37297 1727.25674,1179.8742 C1738.93564,1191.37543 1752.87646,1197.12596 1769.07963,1197.12596 C1796.64605,1197.12596 1817.6888,1183.51461 1832.20852,1156.29152 L1854.30363,1167.68718 C1844.41339,1186.04694 1832.73466,1199.60552 1819.2671,1208.36334 C1805.79953,1217.12116 1789.70183,1221.5 1770.97349,1221.5 C1745.09052,1221.5 1723.73212,1212.58404 1706.89767,1194.75186 C1690.06321,1176.91968 1681.64611,1155.44752 1681.64611,1130.33474 C1681.64611,1105.22197 1690.11582,1083.69705 1707.05549,1065.75935 C1723.99516,1047.82166 1744.98531,1038.85294 1770.02656,1038.85294 C1795.06781,1038.85294 1816.00535,1047.34684 1832.83981,1064.3349 C1849.67426,1081.32295 1858.40701,1104.58885 1859.0383,1134.1333 Z M1830.401,1111.11765 C1827.22752,1096.34412 1820.03442,1084.84205 1808.82147,1076.61109 C1797.60852,1068.38013 1784.70324,1064.26471 1770.10525,1064.26471 C1740.48615,1064.26471 1720.81089,1079.8822 1711.0789,1111.11765 L1830.401,1111.11765 Z M1923.58587,1068.67578 C1941.47375,1048.84756 1962.93889,1038.93359 1987.98193,1038.93359 C2013.02496,1038.93359 2034.12182,1047.84561 2051.27315,1065.66992 C2068.42447,1083.49423 2077,1104.95691 2077,1130.05859 C2077,1155.16028 2068.26664,1176.67569 2050.79964,1194.60547 C2033.33265,1212.53525 2012.23579,1221.5 1987.50843,1221.5 C1962.78106,1221.5 1941.47375,1210.7423 1923.58587,1189.22656 L1923.58587,1215.80469 L1898.01685,1215.80469 L1898.01685,978.5 L1923.58587,978.5 L1923.58587,1068.67578 Z M1986.15689,1196.88235 C2004.09927,1196.88235 2019.35007,1190.22768 2031.90973,1176.91812 C2044.4694,1163.60857 2050.74914,1148.02817 2050.74914,1130.17647 C2050.74914,1112.32477 2044.62771,1096.74437 2032.38468,1083.43482 C2020.14164,1070.12527 2004.83807,1063.47059 1986.47352,1063.47059 C1968.10896,1063.47059 1952.75263,1069.70275 1940.40405,1082.16725 C1928.05547,1094.63175 1921.88127,1110.31778 1921.88127,1129.22579 C1921.88127,1148.13381 1928.10824,1164.13672 1940.56236,1177.23501 C1953.01649,1190.33331 1968.21451,1196.88235 1986.15689,1196.88235 Z" id="CreatorsWeb"></path>
                <g id="Group" transform="translate(1039.000000, 377.000000) rotate(-90.130000) translate(-1039.000000, -377.000000) translate(663.000000, -56.500000)" fill-opacity="0.99123">
                    <path d="M751.390594,217.26374 C675.958431,172.016732 576.545951,172.026975 501.132802,217.288778 C577.129552,260.290337 626.590065,345.528658 626.237402,432.876996 C702.38318,389.696757 751.64916,304.841972 751.390594,217.266017 L751.390594,217.26374 Z M626.239677,434.119561 C626.936768,521.846884 576.222865,606.733534 501.123701,650.276824 C576.716594,695.06632 675.98801,694.851221 751.394308,649.736071 C751.707441,562.292134 702.310373,477.190384 626.239677,434.125092 L626.239677,434.119561 Z M501.123701,650.276824 C425.738994,694.163815 326.304897,695.314423 250.823491,650.357287 C250.051499,737.916171 299.37163,823.585827 375.461665,866.844594 C452.00675,823.753127 501.692513,738.138099 501.112325,650.276824 L501.123701,650.276824 Z M250.317805,649.989103 C174.422305,606.819108 125.144949,521.476082 125.691008,434.139125 C49.5054132,477.215798 -0.0165326757,562.743193 0.529527322,650.285007 C76.088292,694.983455 174.859153,694.868508 250.317805,649.989581 L250.317805,649.989103 Z M125.679291,433.425566 C125.13421,345.886028 174.650626,260.367738 250.829396,217.291065 C175.399183,172.025848 75.9764635,172.022434 0.540562259,217.283099 C0.0916440922,305.025216 49.3640063,390.147452 125.679291,433.42898 L125.679291,433.425566 Z M250.844981,217.28302 C326.114788,171.292919 426.790034,173.285712 501.133814,216.645689 C501.705062,129.079976 452.181819,43.5195761 375.98371,0.43152298 C299.505744,43.7688177 250.082773,129.342875 250.844981,217.28302 L250.844981,217.28302 Z M501.083759,217.319063 C425.129101,260.321759 375.694753,345.5248 376.024664,432.827614 C452.030515,389.750942 501.379541,304.712924 501.083759,217.319063 Z M376.626866,433.793635 C451.75447,477.99474 550.069143,477.879793 625.0955,433.500145 C549.669837,388.964443 451.971757,389.069147 376.626866,433.793635 L376.626866,433.793635 Z M375.992822,434.156765 C375.452257,521.327562 424.925478,607.851923 501.08901,649.733602 C501.342295,562.194065 452.123812,477.358628 375.992822,434.156765 Z M375.928432,434.174179 C299.973775,477.176875 250.539427,562.379915 250.869337,649.682729 C326.875189,606.606057 376.224215,521.56804 375.928432,434.174179 Z M374.792287,433.500407 C299.736352,388.987466 201.281751,389.106965 126.323653,433.791689 C201.758416,478.013279 299.43602,477.910852 374.792287,433.500407 Z M375.464122,433.132895 C377.102074,346.258002 326.680495,260.200257 250.837325,217.294298 C250.397223,304.828145 299.430968,389.771701 375.464122,433.132895 Z" id="Shape"></path>
                </g>
            </g>
        </g>
    </g>
</svg>