<?xml version="1.0" encoding="UTF-8"?>
<svg width="827px" height="718px" viewBox="0 0 827 718" version="1.1" xmlns="http://www.w3.org/2000/svg" xmlns:xlink="http://www.w3.org/1999/xlink">
    <g id="Page-1" stroke="none" stroke-width="1" fill="none" fill-rule="evenodd" fill-opacity="0.99123">
        <g id="logo" transform="translate(-1.000000, 0.000000)" fill="#FFFFFF" fill-rule="nonzero">
            <g id="Group" transform="translate(414.500000, 359.500000) rotate(-90.130000) translate(-414.500000, -359.500000) translate(56.000000, -54.000000)">
                <path d="M716.804424,207.17899 C644.844397,164.032307 550.007865,164.042075 478.065977,207.202866 C550.564603,248.208331 597.748453,329.489966 597.412023,412.783673 C670.052817,371.607822 717.051088,290.69192 716.804424,207.181161 L716.804424,207.17899 Z M597.414193,413.96856 C598.079197,497.623659 549.699651,578.569948 478.057295,620.091997 C550.170654,662.802405 644.872614,662.597291 716.807966,619.576346 C717.106686,536.191477 669.983361,455.040074 597.414193,413.973834 L597.414193,413.96856 Z M478.057295,620.091997 C406.14254,661.941794 311.285387,663.038992 239.278384,620.168725 C238.541927,703.663205 285.591856,785.356153 358.179473,826.606887 C431.201194,785.515687 478.599925,703.874831 478.046443,620.091997 L478.057295,620.091997 Z M238.795975,619.817632 C166.393938,578.651549 119.384815,497.27007 119.905739,413.987215 C47.226961,455.064308 -0.0154937109,536.621599 0.505431189,620.0998 C72.586232,662.723387 166.810678,662.613776 238.795975,619.818088 L238.795975,619.817632 Z M119.894561,413.306779 C119.37457,329.830748 166.61175,248.282139 239.284017,207.205047 C167.325851,164.041 72.479551,164.037745 0.515958189,207.197451 C0.0877036891,290.866658 47.092063,372.037596 119.894561,413.310035 L119.894561,413.306779 Z M239.298885,207.197375 C311.104029,163.342093 407.145201,165.242383 478.066943,206.589629 C478.611896,123.088637 431.368204,41.4998741 358.677488,0.411929546 C285.719797,41.7375461 238.571761,123.339332 239.298885,207.197375 L239.298885,207.197375 Z M478.019192,207.231745 C405.560721,248.238295 358.401832,329.486287 358.716557,412.736584 C431.223865,371.659492 478.301359,290.568862 478.019192,207.231745 Z M359.29104,413.657763 C430.960526,455.807092 524.749783,455.697481 596.322682,413.377896 C524.368857,370.909501 431.167811,371.009345 359.29104,413.657763 L359.29104,413.657763 Z M358.686181,414.004037 C358.170498,497.128444 405.36647,579.636422 478.024201,619.573991 C478.265828,536.097961 431.312867,455.200508 358.686181,414.004037 Z M358.624755,414.020642 C286.166284,455.027192 239.007395,536.275184 239.32212,619.52548 C311.829428,578.448388 358.906923,497.357759 358.624755,414.020642 Z M357.540906,413.378146 C285.93979,370.931456 192.017046,371.045408 120.509263,413.655907 C192.47177,455.824771 285.653282,455.727098 357.540906,413.378146 Z M358.181817,413.027694 C359.744374,330.185455 311.643696,248.122433 239.291581,207.20813 C238.871737,290.678734 285.648463,371.679287 358.181817,413.027694 Z" id="Shape"></path>
            </g>
        </g>
    </g>
</svg>