<?xml version="1.0" encoding="UTF-8"?>
<svg width="2837px" height="382px" viewBox="0 0 2837 382" version="1.1" xmlns="http://www.w3.org/2000/svg" xmlns:xlink="http://www.w3.org/1999/xlink">
    <g id="Page-1" stroke="none" stroke-width="1" fill="none" fill-rule="evenodd">
        <g id="logo-header" transform="translate(-131.000000, -84.000000)" fill="#FFFFFF" fill-rule="nonzero">
            <g id="Group-2" transform="translate(130.000000, 84.000000)">
                <path d="M987.522788,264.708333 C962.554433,296.902939 928.276357,313 884.687534,313 C847.869789,313 817.717778,301.350811 794.230597,278.052083 C770.743415,254.753356 759,225.312678 759,189.729167 C759,167.701279 764.448521,147.368149 775.345727,128.729167 C786.242933,110.090185 801.318939,95.4757474 820.574196,84.8854167 C839.829453,74.2950859 860.618471,69 882.941873,69 C905.265276,69 925.26082,73.2890196 942.929105,81.8671875 C960.597391,90.4453554 975.356006,102.994709 987.205395,119.515625 L966.257473,135.71875 C944.251465,109.031117 917.061757,95.6875 884.687534,95.6875 C858.238004,95.6875 835.438852,105.006851 816.289393,123.645833 C797.139934,142.284815 787.565349,165.106636 787.565349,192.111979 C787.565349,219.117323 796.928341,241.674389 815.654608,259.783854 C834.380874,277.89332 858.661178,286.947917 888.496247,286.947917 C918.331315,286.947917 944.251465,274.133809 966.257473,248.505208 L987.522788,264.708333 Z M1096.60858,137.365475 L1082.96462,159.53251 C1079.36852,157.632469 1075.87824,156.682463 1072.49368,156.682463 C1065.93609,156.682463 1060.01319,159.901929 1054.72481,166.340957 C1049.43643,172.779985 1045.4702,181.224485 1042.82601,191.674711 C1040.18182,202.124937 1038.85974,220.966728 1038.85974,248.20065 L1038.85974,307.418301 L1012.20643,307.418301 L1012.20643,134.8321 L1038.85974,134.8321 L1038.85974,153.515744 C1044.14812,145.704464 1049.48931,139.89887 1054.88346,136.098788 C1060.27761,132.298705 1066.41204,130.398693 1073.28693,130.398693 C1080.16183,130.398693 1087.93563,132.72093 1096.60858,137.365475 Z M1289.30027,225.273762 L1138.27693,225.273762 C1139.3301,244.344779 1145.70166,259.654338 1157.39181,271.202898 C1169.08196,282.751458 1183.03621,288.525651 1199.25497,288.525651 C1226.84794,288.525651 1247.91095,274.858294 1262.44465,247.52317 L1284.56104,258.965723 C1274.66128,277.401039 1262.9713,291.015422 1249.49077,299.809279 C1236.01024,308.603137 1219.89703,313 1201.15066,313 C1175.24276,313 1153.8638,304.047351 1137.01314,286.141786 C1120.16247,268.23622 1111.73727,246.6757 1111.73727,221.459578 C1111.73727,196.243456 1120.21513,174.629961 1137.17111,156.618446 C1154.12709,138.60693 1175.13745,129.601307 1200.20282,129.601307 C1225.26818,129.601307 1246.22588,138.130162 1263.07655,155.188127 C1279.92722,172.246091 1288.66837,195.607736 1289.30027,225.273762 Z M1260.63539,202.163399 C1257.45886,187.329079 1250.25883,175.779674 1239.03508,167.514838 C1227.81134,159.250003 1214.89363,155.117647 1200.28159,155.117647 C1170.63396,155.117647 1150.93976,170.799407 1141.19839,202.163399 L1260.63539,202.163399 Z M1497.12064,307.278724 L1471.527,307.278724 L1471.527,281.850829 C1452.7793,302.617047 1431.18817,313 1406.75297,313 C1382.31776,313 1361.41123,303.941403 1344.03275,285.823937 C1326.65426,267.706471 1317.96515,246.092977 1317.96515,220.982805 C1317.96515,195.872633 1326.70692,174.365087 1344.19073,156.459521 C1361.67454,138.553956 1383.00236,129.601307 1408.17484,129.601307 C1433.34731,129.601307 1454.46449,139.878312 1471.527,160.43263 L1471.527,134.051189 L1497.12064,134.051189 L1497.12064,307.278724 Z M1408.89573,289.078431 C1426.43281,289.078431 1441.53983,282.737381 1454.21723,270.055089 C1466.89464,257.372797 1473.23324,241.573012 1473.23324,222.65526 C1473.23324,203.737508 1467.00028,187.884881 1454.53416,175.096903 C1442.06805,162.308926 1426.80257,155.915033 1408.73727,155.915033 C1390.67196,155.915033 1375.40648,162.520294 1362.94037,175.731015 C1350.47425,188.941735 1344.24129,204.530152 1344.24129,222.496732 C1344.24129,240.463312 1350.57989,256.051729 1363.2573,269.262449 C1375.93471,282.47317 1391.14736,289.078431 1408.89573,289.078431 Z M1621.33512,157.005208 L1586.93727,157.005208 L1586.93727,278.369792 C1586.93727,282.817731 1587.57426,285.518224 1588.84826,286.471354 C1590.12226,287.424479 1593.30721,287.901042 1598.40322,287.901042 L1613.69115,287.901042 L1613.69115,310.458333 C1603.49914,312.152786 1595.74909,313 1590.44075,313 C1580.24874,313 1572.71102,310.51131 1567.82735,305.533854 C1562.94368,300.556399 1560.50188,292.666721 1560.50188,281.864583 L1560.50188,157.005208 L1530.563,157.005208 L1530.563,134.130208 L1560.50188,134.130208 L1560.50188,69 L1586.93727,69 L1586.93727,134.130208 L1621.33512,134.130208 L1621.33512,157.005208 Z M1730.97702,129.601307 C1755.83352,129.601307 1776.9507,138.60693 1794.32918,156.618446 C1811.70767,174.629961 1820.39678,196.243456 1820.39678,221.459578 C1820.39678,246.6757 1811.81299,268.23622 1794.64516,286.141786 C1777.47732,304.047351 1756.25482,313 1730.97702,313 C1705.69922,313 1684.42406,304.047351 1667.1509,286.141786 C1649.87774,268.23622 1641.24129,246.6757 1641.24129,221.459578 C1641.24129,196.243456 1649.9304,174.629961 1667.30889,156.618446 C1684.68737,138.60693 1705.90987,129.601307 1730.97702,129.601307 Z M1731.61528,288.281046 C1749.12881,288.281046 1764.05729,281.879716 1776.40117,269.076864 C1788.74504,256.274012 1794.91689,240.826175 1794.91689,222.732888 C1794.91689,204.639602 1788.63954,188.98015 1776.08466,175.754063 C1763.52978,162.527977 1748.65405,155.915033 1731.45703,155.915033 C1714.26,155.915033 1699.43703,162.527977 1686.98765,175.754063 C1674.53827,188.98015 1668.31367,204.692505 1668.31367,222.8916 C1668.31367,241.090696 1674.32727,256.538533 1686.35463,269.235576 C1698.382,281.932619 1713.46873,288.281046 1731.61528,288.281046 Z M1930.27882,137.365475 L1916.63486,159.53251 C1913.03877,157.632469 1909.54849,156.682463 1906.16392,156.682463 C1899.60633,156.682463 1893.68343,159.901929 1888.39505,166.340957 C1883.10667,172.779985 1879.14044,181.224485 1876.49625,191.674711 C1873.85206,202.124937 1872.52998,220.966728 1872.52998,248.20065 L1872.52998,307.418301 L1845.87668,307.418301 L1845.87668,134.8321 L1872.52998,134.8321 L1872.52998,153.515744 C1877.81837,145.704464 1883.15955,139.89887 1888.5537,136.098788 C1893.94785,132.298705 1900.08228,130.398693 1906.95718,130.398693 C1913.83207,130.398693 1921.60587,132.72093 1930.27882,137.365475 Z M2043.34584,154.393505 L2026.46542,171.875183 C2013.93774,160.220673 2002.4719,154.393505 1992.06756,154.393505 C1985.48522,154.393505 1979.96463,156.459501 1975.50563,160.591554 C1971.04663,164.723608 1968.81716,169.809136 1968.81716,175.848291 C1968.81716,181.887447 1971.31204,187.184872 1976.30188,191.740726 C1981.29171,196.29658 1990.1565,201.91185 2002.89651,208.586706 C2015.63652,215.261562 2025.4568,222.624983 2032.35764,230.67719 C2039.25848,238.729397 2042.70885,248.582608 2042.70885,260.237118 C2042.70885,275.070131 2037.55984,287.572054 2027.26166,297.743263 C2016.96349,307.914472 2004.27675,313 1989.20107,313 C1968.18006,313 1950.6628,304.100326 1936.64879,286.30071 L1953.21072,267.865486 C1964.67673,281.215198 1976.3549,287.889954 1988.24558,287.889954 C1996.31425,287.889954 2003.21498,285.241241 2008.94799,279.943736 C2014.68099,274.646232 2017.54745,268.448244 2017.54745,261.349588 C2017.54745,254.250932 2014.94641,248.317816 2009.74424,243.550062 C2004.54207,238.782308 1995.62419,233.220011 1982.99035,226.863006 C1970.35651,220.506 1960.80164,213.460425 1954.32547,205.726068 C1947.8493,197.991711 1944.61126,187.820655 1944.61126,175.212594 C1944.61126,162.604533 1949.22944,151.85076 1958.46595,142.950952 C1967.70246,134.051144 1979.91145,129.601307 1995.0933,129.601307 C2010.27514,129.601307 2026.35916,137.86529 2043.34584,154.393505 Z M2415.98928,74.5816993 L2349.48244,313 L2341.56496,313 L2275.69152,139.113586 L2208.55128,313 L2200.9505,313 L2135.71046,74.5816993 L2163.89669,74.5816993 L2208.55128,239.249272 L2271.89113,74.5816993 L2279.49191,74.5816993 L2342.19836,239.567163 L2387.80304,74.5816993 L2415.98928,74.5816993 Z M2619.82842,225.273762 L2468.80508,225.273762 C2469.85825,244.344779 2476.22981,259.654338 2487.91996,271.202898 C2499.61011,282.751458 2513.56436,288.525651 2529.78312,288.525651 C2557.37609,288.525651 2578.4391,274.858294 2592.9728,247.52317 L2615.08919,258.965723 C2605.18943,277.401039 2593.49945,291.015422 2580.01892,299.809279 C2566.53839,308.603137 2550.42518,313 2531.67881,313 C2505.77092,313 2484.39195,304.047351 2467.54129,286.141786 C2450.69062,268.23622 2442.26542,246.6757 2442.26542,221.459578 C2442.26542,196.243456 2450.74328,174.629961 2467.69926,156.618446 C2484.65524,138.60693 2505.6656,129.601307 2530.73097,129.601307 C2555.79633,129.601307 2576.75403,138.130162 2593.6047,155.188127 C2610.45537,172.246091 2619.19652,195.607736 2619.82842,225.273762 Z M2591.16354,202.163399 C2587.98701,187.329079 2580.78698,175.779674 2569.56323,167.514838 C2558.33949,159.250003 2545.42178,155.117647 2530.80974,155.117647 C2501.16211,155.117647 2481.46791,170.799407 2471.72654,202.163399 L2591.16354,202.163399 Z M2684.43815,159.546875 C2702.34325,139.637053 2723.82906,129.682292 2748.89621,129.682292 C2773.96336,129.682292 2795.08053,138.630987 2812.24837,156.528646 C2829.41621,174.426305 2838,195.977305 2838,221.182292 C2838,246.387279 2829.25823,267.991229 2811.77442,285.994792 C2794.29061,303.998354 2773.17343,313 2748.42225,313 C2723.67108,313 2702.34325,302.198025 2684.43815,280.59375 L2684.43815,307.28125 L2658.8445,307.28125 L2658.8445,69 L2684.43815,69 L2684.43815,159.546875 Z M2747.06942,288.281046 C2765.02907,288.281046 2780.29455,281.598983 2792.86631,268.234658 C2805.43807,254.870332 2811.72386,239.22582 2811.72386,221.300654 C2811.72386,203.375487 2805.59654,187.730975 2793.34171,174.36665 C2781.08689,161.002324 2765.76859,154.320261 2747.38635,154.320261 C2729.00411,154.320261 2713.63299,160.578066 2701.27252,173.093863 C2688.91205,185.60966 2682.7319,201.360236 2682.7319,220.346064 C2682.7319,239.331891 2688.96487,255.400661 2701.43098,268.552854 C2713.8971,281.705048 2729.10976,288.281046 2747.06942,288.281046 Z" id="CreatorsWeb"></path>
                <g id="Group" transform="translate(219.500000, 191.000000) rotate(-90.130000) translate(-219.500000, -191.000000) translate(29.000000, -28.000000)" fill-opacity="0.99123">
                    <path d="M380.497372,109.865477 C342.322729,87.0438653 292.012148,87.0490319 253.847128,109.878106 C292.307496,131.567161 317.338429,174.559525 317.159954,218.616136 C355.695743,196.836959 380.628226,154.038042 380.497372,109.866625 L380.497372,109.865477 Z M317.161105,219.24286 C317.513888,263.490622 291.848641,306.305611 253.842522,328.267904 C292.098507,350.858756 342.337698,350.750265 380.499251,327.99516 C380.657721,283.890331 355.658896,240.96685 317.161105,219.245649 L317.161105,219.24286 Z M253.842522,328.267904 C215.691896,350.403553 165.370375,350.983895 127.170812,328.308488 C126.780123,372.471294 151.740011,415.681214 190.247589,437.5 C228.985459,415.765597 254.130386,372.583229 253.836765,328.267904 L253.842522,328.267904 Z M126.914895,328.122784 C88.5057664,306.348773 63.5675255,263.303598 63.8438746,219.252727 C25.2879357,240.979668 0.225912838,284.117836 0.502262402,328.272031 C38.7409756,350.816961 88.7268461,350.758985 126.914895,328.123025 L126.914895,328.122784 Z M63.8379447,218.892823 C63.5620906,174.739775 88.6213152,131.6062 127.1738,109.879259 C89.0001443,87.0484633 38.6843816,87.0467416 0.507846953,109.875242 C0.280658841,154.130466 25.2163726,197.064279 63.8379447,218.894545 L63.8379447,218.892823 Z M127.181687,109.875201 C165.274165,86.6787898 216.223805,87.6839118 253.84764,109.553746 C254.136737,65.3874952 229.074057,22.2326814 190.511785,0.5 C151.807884,22.3583934 126.79595,65.5200955 127.181687,109.875201 L127.181687,109.875201 Z M253.822308,109.893381 C215.383242,131.58301 190.36555,174.557579 190.532511,218.59123 C228.997486,196.864288 253.971997,153.972953 253.822308,109.893381 Z M190.837273,219.07847 C228.857785,241.37255 278.612789,241.314573 316.582061,218.930439 C278.410708,196.467595 228.967749,196.520406 190.837273,219.07847 L190.837273,219.07847 Z M190.516397,219.261625 C190.242828,263.228688 215.280192,306.869702 253.824966,327.993915 C253.953148,283.840867 229.044701,241.051709 190.516397,219.261625 Z M190.483811,219.270407 C152.044744,240.960037 127.027053,283.934606 127.194014,327.968256 C165.658988,306.241315 190.6335,263.349979 190.483811,219.270407 Z M189.908831,218.930571 C151.924589,196.479208 102.098771,196.53948 64.1640428,219.077488 C102.340001,241.381901 151.772598,241.330239 189.908831,218.930571 Z M190.248833,218.745207 C191.077766,174.927391 165.560458,131.521727 127.177813,109.88089 C126.955086,154.031067 151.770041,196.874759 190.248833,218.745207 Z" id="Shape"></path>
                </g>
            </g>
        </g>
    </g>
</svg>