<?xml version="1.0" encoding="UTF-8"?>
<svg width="3564px" height="550px" viewBox="0 0 3564 550" version="1.1" xmlns="http://www.w3.org/2000/svg" xmlns:xlink="http://www.w3.org/1999/xlink">
    <!-- Generator: Sketch 55.2 (78181) - https://sketchapp.com -->
    <title>logo-header</title>
    <desc>Created with Sketch.</desc>
    <defs>
        <path d="M266.464756,536.568698 C398.269268,536.568698 443.015038,503.338341 498.58728,426.552106 C508.277883,413.16224 546.248117,330.985584 546.248117,313.74468 C546.248117,249.201954 506.284395,197.766812 506.289447,125.991384 C506.29076,107.330196 360.519409,0.31795532 276.327925,0.31795532 C127.169077,0.31795532 0.173999215,127.911871 0.173999215,276.09579 C0.173999215,424.279709 117.305908,536.568698 266.464756,536.568698 Z" id="path-1"></path>
    </defs>
    <g id="logo-header" stroke="none" stroke-width="1" fill="none" fill-rule="evenodd">
        <path d="M1240,367.4375 C1208.64244,407.812702 1165.59287,428 1110.85,428 C1064.61088,428 1026.7432,413.390771 997.245833,384.171875 C967.748464,354.952979 953,318.031473 953,273.40625 C953,245.781112 959.842756,220.281367 973.528472,196.90625 C987.214189,173.531133 1006.14803,155.203191 1030.33056,141.921875 C1054.51308,128.640559 1080.62185,122 1108.65764,122 C1136.69343,122 1161.80568,127.378852 1183.99514,138.136719 C1206.1846,148.894585 1224.71983,164.632709 1239.60139,185.351562 L1213.29306,205.671875 C1185.65588,172.202958 1151.50854,155.46875 1110.85,155.46875 C1077.63224,155.46875 1048.99896,167.156133 1024.94931,190.53125 C1000.89965,213.906367 988.875,242.527174 988.875,276.394531 C988.875,310.261888 1000.63391,338.550668 1024.15208,361.261719 C1047.67026,383.97277 1078.1637,395.328125 1115.63333,395.328125 C1153.10297,395.328125 1185.65588,379.257973 1213.29306,347.117188 L1240,367.4375 Z M1377,207.73703 L1359.86466,235.536673 C1355.34835,233.153834 1350.96493,231.962433 1346.71429,231.962433 C1338.47866,231.962433 1331.04013,235.99996 1324.3985,244.075134 C1317.75686,252.150309 1312.77571,262.740543 1309.45489,275.846154 C1306.13407,288.951765 1304.47368,312.581225 1304.47368,346.735242 L1304.47368,421 L1271,421 L1271,204.559928 L1304.47368,204.559928 L1304.47368,227.991055 C1311.11532,218.194942 1317.82327,210.914156 1324.59774,206.148479 C1331.37221,201.382803 1339.0764,199 1347.71053,199 C1356.34465,199 1366.10771,201.912314 1377,207.73703 Z M1619,317.982669 L1429.33096,317.982669 C1430.65362,341.8996 1438.65562,361.099292 1453.33719,375.582322 C1468.01876,390.065353 1485.54379,397.306759 1505.91281,397.306759 C1540.5666,397.306759 1567.01948,380.166549 1585.27224,345.885615 L1613.04804,360.235702 C1600.615,383.355402 1585.93366,400.429177 1569.00356,411.457539 C1552.07346,422.485901 1531.83701,428 1508.29359,428 C1475.75607,428 1448.90639,416.772498 1427.74377,394.317158 C1406.58115,371.861817 1396,344.822804 1396,313.199307 C1396,281.57581 1406.64728,254.470361 1427.94217,231.882149 C1449.23706,209.293937 1475.6238,198 1507.1032,198 C1538.5826,198 1564.90322,208.696022 1586.06584,230.088388 C1607.22846,251.480754 1618.20641,280.778555 1619,317.982669 Z M1583,289 C1579.01062,270.396303 1569.96816,255.912214 1555.87234,245.547297 C1541.77653,235.182381 1525.55328,230 1507.20213,230 C1469.9679,230 1445.2341,249.66647 1433,289 L1583,289 Z M1880,420.824957 L1847.85714,420.824957 L1847.85714,388.935875 C1824.31205,414.978755 1797.19592,428 1766.50794,428 C1735.81995,428 1709.5636,416.639628 1687.7381,393.918544 C1665.91259,371.19746 1655,344.092012 1655,312.601386 C1655,281.110761 1665.97873,254.138183 1687.93651,231.682842 C1709.89429,209.227502 1736.67974,198 1768.29365,198 C1799.90757,198 1826.42846,210.888375 1847.85714,236.665511 L1847.85714,203.580589 L1880,203.580589 L1880,420.824957 Z M1769.19902,398 C1791.2237,398 1810.19648,390.047699 1826.11794,374.142857 C1842.03939,358.238016 1850,338.423531 1850,314.69881 C1850,290.974088 1842.17207,271.093334 1826.51597,255.055952 C1810.85987,239.018571 1791.68807,231 1769,231 C1746.31193,231 1727.14013,239.283647 1711.48403,255.85119 C1695.82793,272.418734 1688,291.968141 1688,314.5 C1688,337.031859 1695.96061,356.581266 1711.88206,373.14881 C1727.80352,389.716353 1746.90898,398 1769.19902,398 Z M2036,232.367187 L1992.8,232.367187 L1992.8,384.570312 C1992.8,390.148465 1993.59999,393.53515 1995.2,394.730469 C1996.80001,395.925781 2000.79997,396.523437 2007.2,396.523437 L2026.4,396.523437 L2026.4,424.8125 C2013.59994,426.937511 2003.8667,428 1997.2,428 C1984.39994,428 1974.93336,424.878937 1968.8,418.636719 C1962.66664,412.3945 1959.6,402.500068 1959.6,388.953125 L1959.6,232.367187 L1922,232.367187 L1922,203.679688 L1959.6,203.679688 L1959.6,122 L1992.8,122 L1992.8,203.679688 L2036,203.679688 L2036,232.367187 Z M2173.69841,198 C2204.9155,198 2231.4364,209.293937 2253.2619,231.882149 C2275.08741,254.470361 2286,281.57581 2286,313.199307 C2286,344.822804 2275.21968,371.861817 2253.65873,394.317158 C2232.09778,416.772498 2205.4446,428 2173.69841,428 C2141.95222,428 2115.23291,416.772498 2093.53968,394.317158 C2071.84645,371.861817 2061,344.822804 2061,313.199307 C2061,281.57581 2071.91259,254.470361 2093.7381,231.882149 C2115.5636,209.293937 2142.21677,198 2173.69841,198 Z M2174.5,397 C2196.49511,397 2215.24367,388.972103 2230.74625,372.916067 C2246.24883,356.860032 2254,337.486924 2254,314.796163 C2254,292.105402 2246.11633,272.466909 2230.34875,255.880096 C2214.58117,239.293282 2195.89886,231 2174.30125,231 C2152.70364,231 2134.08758,239.293282 2118.4525,255.880096 C2102.81742,272.466909 2095,292.171748 2095,314.995204 C2095,337.818659 2102.55242,357.191767 2117.6575,373.115108 C2132.76258,389.038449 2151.70989,397 2174.5,397 Z M2424,207.73703 L2406.86466,235.536673 C2402.34835,233.153834 2397.96493,231.962433 2393.71429,231.962433 C2385.47866,231.962433 2378.04013,235.99996 2371.3985,244.075134 C2364.75686,252.150309 2359.77571,262.740543 2356.45489,275.846154 C2353.13407,288.951765 2351.47368,312.581225 2351.47368,346.735242 L2351.47368,421 L2318,421 L2318,204.559928 L2351.47368,204.559928 L2351.47368,227.991055 C2358.11532,218.194942 2364.82327,210.914156 2371.59774,206.148479 C2378.37221,201.382803 2386.0764,199 2394.71053,199 C2403.34465,199 2413.10771,201.912314 2424,207.73703 Z M2566,229.091854 L2544.8,251.015598 C2529.06659,236.399696 2514.66673,229.091854 2501.6,229.091854 C2493.33329,229.091854 2486.40003,231.682816 2480.8,236.864818 C2475.19997,242.04682 2472.4,248.424572 2472.4,255.998267 C2472.4,263.571962 2475.5333,270.215454 2481.8,275.928943 C2488.0667,281.642432 2499.19992,288.684534 2515.2,297.055459 C2531.20008,305.426385 2543.53329,314.660839 2552.2,324.759099 C2560.86671,334.857358 2565.2,347.214254 2565.2,361.830156 C2565.2,380.432213 2558.7334,396.110855 2545.8,408.866551 C2532.8666,421.622247 2516.93343,428 2498,428 C2471.59987,428 2449.60009,416.838933 2432,394.516464 L2452.8,371.39688 C2467.20007,388.138732 2481.86659,396.509532 2496.8,396.509532 C2506.93338,396.509532 2515.59996,393.187786 2522.8,386.544194 C2530.00004,379.900602 2533.6,372.127716 2533.6,363.225303 C2533.6,354.32289 2530.33337,346.882179 2523.8,340.902946 C2517.26663,334.923714 2506.06675,327.948047 2490.2,319.975737 C2474.33325,312.003426 2462.33337,303.167582 2454.2,293.467938 C2446.06663,283.768294 2442,271.012788 2442,255.20104 C2442,239.389291 2447.79994,225.903002 2459.4,214.741768 C2471.00006,203.580533 2486.33324,198 2505.4,198 C2524.46676,198 2544.66656,208.363848 2566,229.091854 Z M3034,129 L2950.47458,428 L2940.53107,428 L2857.80113,209.929333 L2773.48023,428 L2763.93446,428 L2682,129 L2717.39887,129 L2773.48023,335.509333 L2853.02825,129 L2862.57401,129 L2941.32655,335.908 L2998.60113,129 L3034,129 Z M3290,317.982669 L3100.33096,317.982669 C3101.65362,341.8996 3109.65562,361.099292 3124.33719,375.582322 C3139.01876,390.065353 3156.54379,397.306759 3176.91281,397.306759 C3211.5666,397.306759 3238.01948,380.166549 3256.27224,345.885615 L3284.04804,360.235702 C3271.615,383.355402 3256.93366,400.429177 3240.00356,411.457539 C3223.07346,422.485901 3202.83701,428 3179.29359,428 C3146.75607,428 3119.90639,416.772498 3098.74377,394.317158 C3077.58115,371.861817 3067,344.822804 3067,313.199307 C3067,281.57581 3077.64728,254.470361 3098.94217,231.882149 C3120.23706,209.293937 3146.6238,198 3178.1032,198 C3209.5826,198 3235.90322,208.696022 3257.06584,230.088388 C3278.22846,251.480754 3289.20641,280.778555 3290,317.982669 Z M3254,289 C3250.01062,270.396303 3240.96816,255.912214 3226.87234,245.547297 C3212.77653,235.182381 3196.55328,230 3178.20213,230 C3140.9679,230 3116.2341,249.66647 3104,289 L3254,289 Z M3371.14286,235.554688 C3393.62974,210.585813 3420.6136,198.101563 3452.09524,198.101563 C3483.57688,198.101563 3510.09778,209.324107 3531.65873,231.769531 C3553.21968,254.214956 3564,281.242029 3564,312.851562 C3564,344.461096 3553.02127,371.554575 3531.06349,394.132812 C3509.10571,416.71105 3482.58481,428 3451.5,428 C3420.41519,428 3393.62974,414.45326 3371.14286,387.359375 L3371.14286,420.828125 L3339,420.828125 L3339,122 L3371.14286,122 L3371.14286,235.554688 Z M3449.80098,397 C3472.35638,397 3491.52818,388.620036 3507.31695,371.859857 C3523.10573,355.099679 3531,335.479922 3531,313 C3531,290.520078 3523.30475,270.900321 3507.914,254.140143 C3492.52326,237.379964 3473.28513,229 3450.19902,229 C3427.11291,229 3407.80843,236.847903 3392.28501,252.543943 C3376.76159,268.239983 3369,287.992755 3369,311.80285 C3369,335.612946 3376.82793,355.764763 3392.48403,372.258907 C3408.14013,388.753052 3427.24559,397 3449.80098,397 Z" id="CreatorsWeb" fill="#FFFFFF" fill-rule="nonzero"></path>
        <g id="logo">
            <g id="Group" transform="translate(269.895415, 274.702804) rotate(-90.130000) translate(-269.895415, -274.702804) translate(-4.104585, 5.702804)">
                <g id="Clipped" transform="translate(0.095335, 0.103792)">
                    <g id="Shape-Clipped">
                        <g>
                            <mask id="mask-2" fill="white">
                                <use xlink:href="#path-1"></use>
                            </mask>
                            <g id="path-1"></g>
                            <path d="M403.055947,-8.28153203 C299.310716,-59.0275382 167.606954,-43.1050529 78.926422,30.9002022 C-11.6000371,103.092186 -53.6207962,229.384935 -24.3901662,341.445373 C2.25685783,453.782434 98.0632206,545.441842 211.445986,567.066934 C324.69048,591.289526 448.98288,543.64171 517.033281,449.916612 C555.88347,397.877388 577.354986,333.250383 577.357751,268.299036 C578.905564,152.644559 508.045622,40.2037634 403.055947,-8.28153203 Z M237.520952,559.379958 C162.5224,557.619666 97.0161986,509.614751 48.3445725,455.21546 C21.0884618,425.982441 1.02662594,389.419605 -2.91619064,348.858748 C-12.8275036,264.655594 4.071368,176.034351 47.6601277,103.35329 C72.6893735,66.4496294 110.295809,40.022448 147.49227,16.8218737 C221.35008,-28.084839 316.639998,-36.3305347 395.026205,1.5163532 C510.31712,55.5292369 591.033205,185.217663 578.913693,314.976218 C571.914381,395.651914 491.814498,495.40727 422.14148,532.336878 C357.606637,568.130407 310.224193,553.779505 237.514038,559.379958 L237.520952,559.379958 Z M500.103791,136.240748 C454.262092,108.746384 393.847053,108.752607 348.01691,136.255962 C394.20172,162.385878 424.259906,214.180981 424.045585,267.258237 C470.320963,241.019746 500.260928,189.457699 500.103791,136.242131 L500.103791,136.240748 Z M348.011379,399.361338 C393.950757,426.577695 454.280068,426.446991 500.10514,399.03275 C500.296345,345.897403 470.276716,294.185287 424.046968,268.016644 C424.470605,321.320828 393.650708,372.902239 348.011379,399.361338 Z M348.011379,399.361338 C302.19852,426.029288 241.770345,426.728456 195.89872,399.410232 C195.429564,452.615426 225.402437,504.672631 271.643939,530.958839 C318.161983,504.774291 348.357059,452.750281 348.004466,399.361338 L348.011379,399.361338 Z M195.591405,399.186505 C149.468125,372.954238 119.521248,321.095512 119.8531,268.025171 C73.553524,294.20073 43.4580047,346.171489 43.7898567,399.366311 C89.7084944,426.527343 149.733607,426.457495 195.591405,399.186796 L195.591405,399.186505 Z M119.845979,267.591577 C119.514722,214.398138 149.606881,162.432911 195.902308,136.257352 C150.061795,108.751923 89.6405335,108.749848 43.7965629,136.252511 C43.523746,189.569047 73.4675884,241.293611 119.845979,267.593651 L119.845979,267.591577 Z M195.91178,136.252463 C241.654813,108.306558 302.837259,109.51748 348.017526,135.865189 C348.364684,82.6558453 318.268377,30.6650302 271.961196,4.48255568 C225.483941,30.8164819 195.44857,82.8155956 195.91178,136.252463 L195.91178,136.252463 Z M347.987106,136.274364 C301.827875,162.404972 271.785591,214.178637 271.986085,267.228231 C318.176426,241.052672 348.166859,189.379283 347.987106,136.274364 Z M272.352055,267.815234 C318.008668,294.674054 377.756546,294.604207 423.351627,267.636894 C377.513879,240.574755 318.140717,240.638378 272.352055,267.815234 L272.352055,267.815234 Z M271.966734,268.03589 C271.638221,321.005263 301.704129,373.581829 347.990297,399.03125 C348.144224,345.837812 318.233124,294.28752 271.966734,268.03589 Z M271.927603,268.046471 C225.768373,294.177079 195.726088,345.950743 195.926582,399.000337 C242.116923,372.824778 272.107356,321.15139 271.927603,268.046471 Z M271.237143,267.637053 C225.624087,240.588745 165.791171,240.661359 120.237571,267.814051 C166.080851,294.68532 225.441568,294.623079 271.237143,267.637053 Z M271.645432,267.413734 C272.640849,214.624168 241.998604,162.331141 195.907127,136.259317 C195.639668,189.449297 225.438498,241.065286 271.645432,267.413734 Z" id="Shape" fill-opacity="0.99123" fill="#FFFFFF" fill-rule="nonzero" mask="url(#mask-2)"></path>
                        </g>
                    </g>
                </g>
            </g>
        </g>
    </g>
</svg>