<?xml version="1.0" encoding="UTF-8"?>
<svg width="3564px" height="550px" viewBox="0 0 3564 550" version="1.1" xmlns="http://www.w3.org/2000/svg" xmlns:xlink="http://www.w3.org/1999/xlink">
    <defs>
        <circle id="path-1" cx="273.396237" cy="273.402565" r="272.184606"></circle>
    </defs>
    <g id="logo-header" stroke="none" stroke-width="1" fill="none" fill-rule="evenodd">
        <g id="logo" transform="translate(0.000000, 8.000000)">
            <g id="Group" transform="translate(275.220425, 274.775060) rotate(-90.130000) translate(-275.220425, -274.775060) translate(1.220425, 0.775060)">
                <g id="Clipped" transform="translate(0.109982, 0.107763)">
                    <mask id="mask-2" fill="white">
                        <use xlink:href="#path-1"></use>
                    </mask>
                    <g id="Oval" transform="translate(273.396237, 273.402565) rotate(90.126000) translate(-273.396237, -273.402565) "></g>
                    <path d="M580.725987,267.467969 C582.279996,151.122528 510.97716,38.0119977 405.33127,-10.7620924 C300.937604,-61.8103587 168.410658,-45.7930338 79.1758479,28.6530213 C-11.9164264,101.275005 -54.1998267,228.319996 -24.7864972,341.047903 C2.0270779,454.054082 98.4322566,546.259443 212.523695,568.013341 C326.475998,592.380211 451.545259,544.448589 520.020993,450.165233 C559.114007,397.816046 580.719726,332.804101 580.722508,267.465882 L580.725987,267.467969 Z M233.658439,556.525585 C158.191126,554.77936 92.275493,507.158081 43.2996559,453.193526 C15.8731871,424.194126 -4.31404079,387.923483 -8.281501,347.686772 C-18.2547624,264.156534 -1.25026825,176.243515 42.6109331,104.143291 C67.7966183,67.5345488 105.638105,41.3185624 143.067054,18.3033973 C217.386495,-26.2444397 313.272001,-34.4242394 392.148143,3.12019215 C508.159658,56.7014276 589.38024,185.353438 577.184978,314.075017 C570.141919,394.105987 516.088317,464.195697 445.979823,500.83018 C381.04162,536.337662 306.816095,550.969889 233.651482,556.525585 L233.658439,556.525585 Z M502.984436,134.62101 C456.857468,106.96288 396.064819,106.969142 349.948225,134.636315 C396.421703,160.92187 426.66776,213.025482 426.4521,266.418884 C473.016712,240.024108 503.143808,188.15494 502.984436,134.622402 L502.984436,134.62101 Z M426.453491,267.178427 C426.879776,320.80349 395.867246,372.692137 349.942659,399.308835 C396.169171,426.687302 456.875556,426.555819 502.986125,398.97829 C503.179448,345.526451 472.972188,293.50632 426.453491,267.181808 L426.453491,267.178427 Z M349.942659,399.308835 C303.843457,426.135628 243.03759,426.83896 196.879255,399.35802 C196.407167,452.880122 226.567377,505.247397 273.097901,531.690175 C319.906697,505.349662 350.290499,453.01578 349.935702,399.308835 L349.942659,399.308835 Z M196.570018,399.13296 C150.158456,372.744445 120.024402,320.576831 120.358328,267.190386 C73.7693677,293.521855 43.4857432,345.80217 43.8196693,399.313837 C90.0253107,426.63665 150.425597,426.566386 196.570018,399.133253 L196.570018,399.13296 Z M120.351163,266.754208 C120.017835,213.243932 150.298079,160.969183 196.882865,134.637714 C150.755836,106.968453 89.9569254,106.966366 43.8264174,134.632844 C43.5518953,188.266951 73.6828947,240.299604 120.351163,266.756295 L120.351163,266.754208 Z M196.892396,134.632795 C242.921335,106.520435 304.486188,107.73857 349.948844,134.243215 C350.298172,80.716938 320.013755,28.4164485 273.417142,2.07802251 C226.649391,28.5688024 196.426291,80.87764 196.892396,134.632795 L196.892396,134.632795 Z M349.918234,134.654827 C303.470496,160.941078 273.240439,213.023124 273.442186,266.388698 C319.921229,240.057229 350.099111,188.076057 349.918234,134.654827 Z M273.810444,266.979198 C319.752423,293.997999 379.873741,293.927735 425.753804,266.799796 C379.629558,239.576466 319.885297,239.640468 273.810444,266.979198 L273.810444,266.979198 Z M273.422714,267.201169 C273.092148,320.486045 303.345976,373.375775 349.920241,398.97678 C350.076334,345.466504 319.978282,293.609163 273.422714,267.201169 Z M273.383338,267.211813 C226.935601,293.498063 196.705543,345.580109 196.907291,398.945683 C243.386334,372.614214 273.564215,320.633042 273.383338,267.211813 Z M272.688563,266.799956 C226.790412,239.59054 166.583525,239.663586 120.745203,266.978009 C166.875015,294.009331 226.606753,293.94672 272.688563,266.799956 Z M273.099404,266.575307 C274.101043,213.471308 243.267275,160.866807 196.887714,134.639689 C196.618584,188.146487 226.603664,240.069918 273.099404,266.575307 Z" id="Shape" fill-opacity="0.99123" fill="#FFFFFF" fill-rule="nonzero" mask="url(#mask-2)"></path>
                </g>
            </g>
        </g>
        <path d="M1240,375.4375 C1208.64244,415.812702 1165.59287,436 1110.85,436 C1064.61088,436 1026.7432,421.390771 997.245833,392.171875 C967.748464,362.952979 953,326.031473 953,281.40625 C953,253.781112 959.842756,228.281367 973.528472,204.90625 C987.214189,181.531133 1006.14803,163.203191 1030.33056,149.921875 C1054.51308,136.640559 1080.62185,130 1108.65764,130 C1136.69343,130 1161.80568,135.378852 1183.99514,146.136719 C1206.1846,156.894585 1224.71983,172.632709 1239.60139,193.351562 L1213.29306,213.671875 C1185.65588,180.202958 1151.50854,163.46875 1110.85,163.46875 C1077.63224,163.46875 1048.99896,175.156133 1024.94931,198.53125 C1000.89965,221.906367 988.875,250.527174 988.875,284.394531 C988.875,318.261888 1000.63391,346.550668 1024.15208,369.261719 C1047.67026,391.97277 1078.1637,403.328125 1115.63333,403.328125 C1153.10297,403.328125 1185.65588,387.257973 1213.29306,355.117188 L1240,375.4375 Z M1377,215.73703 L1359.86466,243.536673 C1355.34835,241.153834 1350.96493,239.962433 1346.71429,239.962433 C1338.47866,239.962433 1331.04013,243.99996 1324.3985,252.075134 C1317.75686,260.150309 1312.77571,270.740543 1309.45489,283.846154 C1306.13407,296.951765 1304.47368,320.581225 1304.47368,354.735242 L1304.47368,429 L1271,429 L1271,212.559928 L1304.47368,212.559928 L1304.47368,235.991055 C1311.11532,226.194942 1317.82327,218.914156 1324.59774,214.148479 C1331.37221,209.382803 1339.0764,207 1347.71053,207 C1356.34465,207 1366.10771,209.912314 1377,215.73703 Z M1619,325.982669 L1429.33096,325.982669 C1430.65362,349.8996 1438.65562,369.099292 1453.33719,383.582322 C1468.01876,398.065353 1485.54379,405.306759 1505.91281,405.306759 C1540.5666,405.306759 1567.01948,388.166549 1585.27224,353.885615 L1613.04804,368.235702 C1600.615,391.355402 1585.93366,408.429177 1569.00356,419.457539 C1552.07346,430.485901 1531.83701,436 1508.29359,436 C1475.75607,436 1448.90639,424.772498 1427.74377,402.317158 C1406.58115,379.861817 1396,352.822804 1396,321.199307 C1396,289.57581 1406.64728,262.470361 1427.94217,239.882149 C1449.23706,217.293937 1475.6238,206 1507.1032,206 C1538.5826,206 1564.90322,216.696022 1586.06584,238.088388 C1607.22846,259.480754 1618.20641,288.778555 1619,325.982669 Z M1583,297 C1579.01062,278.396303 1569.96816,263.912214 1555.87234,253.547297 C1541.77653,243.182381 1525.55328,238 1507.20213,238 C1469.9679,238 1445.2341,257.66647 1433,297 L1583,297 Z M1880,428.824957 L1847.85714,428.824957 L1847.85714,396.935875 C1824.31205,422.978755 1797.19592,436 1766.50794,436 C1735.81995,436 1709.5636,424.639628 1687.7381,401.918544 C1665.91259,379.19746 1655,352.092012 1655,320.601386 C1655,289.110761 1665.97873,262.138183 1687.93651,239.682842 C1709.89429,217.227502 1736.67974,206 1768.29365,206 C1799.90757,206 1826.42846,218.888375 1847.85714,244.665511 L1847.85714,211.580589 L1880,211.580589 L1880,428.824957 Z M1769.19902,406 C1791.2237,406 1810.19648,398.047699 1826.11794,382.142857 C1842.03939,366.238016 1850,346.423531 1850,322.69881 C1850,298.974088 1842.17207,279.093334 1826.51597,263.055952 C1810.85987,247.018571 1791.68807,239 1769,239 C1746.31193,239 1727.14013,247.283647 1711.48403,263.85119 C1695.82793,280.418734 1688,299.968141 1688,322.5 C1688,345.031859 1695.96061,364.581266 1711.88206,381.14881 C1727.80352,397.716353 1746.90898,406 1769.19902,406 Z M2036,240.367187 L1992.8,240.367187 L1992.8,392.570312 C1992.8,398.148465 1993.59999,401.53515 1995.2,402.730469 C1996.80001,403.925781 2000.79997,404.523437 2007.2,404.523437 L2026.4,404.523437 L2026.4,432.8125 C2013.59994,434.937511 2003.8667,436 1997.2,436 C1984.39994,436 1974.93336,432.878937 1968.8,426.636719 C1962.66664,420.3945 1959.6,410.500068 1959.6,396.953125 L1959.6,240.367187 L1922,240.367187 L1922,211.679688 L1959.6,211.679688 L1959.6,130 L1992.8,130 L1992.8,211.679688 L2036,211.679688 L2036,240.367187 Z M2173.69841,206 C2204.9155,206 2231.4364,217.293937 2253.2619,239.882149 C2275.08741,262.470361 2286,289.57581 2286,321.199307 C2286,352.822804 2275.21968,379.861817 2253.65873,402.317158 C2232.09778,424.772498 2205.4446,436 2173.69841,436 C2141.95222,436 2115.23291,424.772498 2093.53968,402.317158 C2071.84645,379.861817 2061,352.822804 2061,321.199307 C2061,289.57581 2071.91259,262.470361 2093.7381,239.882149 C2115.5636,217.293937 2142.21677,206 2173.69841,206 Z M2174.5,405 C2196.49511,405 2215.24367,396.972103 2230.74625,380.916067 C2246.24883,364.860032 2254,345.486924 2254,322.796163 C2254,300.105402 2246.11633,280.466909 2230.34875,263.880096 C2214.58117,247.293282 2195.89886,239 2174.30125,239 C2152.70364,239 2134.08758,247.293282 2118.4525,263.880096 C2102.81742,280.466909 2095,300.171748 2095,322.995204 C2095,345.818659 2102.55242,365.191767 2117.6575,381.115108 C2132.76258,397.038449 2151.70989,405 2174.5,405 Z M2424,215.73703 L2406.86466,243.536673 C2402.34835,241.153834 2397.96493,239.962433 2393.71429,239.962433 C2385.47866,239.962433 2378.04013,243.99996 2371.3985,252.075134 C2364.75686,260.150309 2359.77571,270.740543 2356.45489,283.846154 C2353.13407,296.951765 2351.47368,320.581225 2351.47368,354.735242 L2351.47368,429 L2318,429 L2318,212.559928 L2351.47368,212.559928 L2351.47368,235.991055 C2358.11532,226.194942 2364.82327,218.914156 2371.59774,214.148479 C2378.37221,209.382803 2386.0764,207 2394.71053,207 C2403.34465,207 2413.10771,209.912314 2424,215.73703 Z M2566,237.091854 L2544.8,259.015598 C2529.06659,244.399696 2514.66673,237.091854 2501.6,237.091854 C2493.33329,237.091854 2486.40003,239.682816 2480.8,244.864818 C2475.19997,250.04682 2472.4,256.424572 2472.4,263.998267 C2472.4,271.571962 2475.5333,278.215454 2481.8,283.928943 C2488.0667,289.642432 2499.19992,296.684534 2515.2,305.055459 C2531.20008,313.426385 2543.53329,322.660839 2552.2,332.759099 C2560.86671,342.857358 2565.2,355.214254 2565.2,369.830156 C2565.2,388.432213 2558.7334,404.110855 2545.8,416.866551 C2532.8666,429.622247 2516.93343,436 2498,436 C2471.59987,436 2449.60009,424.838933 2432,402.516464 L2452.8,379.39688 C2467.20007,396.138732 2481.86659,404.509532 2496.8,404.509532 C2506.93338,404.509532 2515.59996,401.187786 2522.8,394.544194 C2530.00004,387.900602 2533.6,380.127716 2533.6,371.225303 C2533.6,362.32289 2530.33337,354.882179 2523.8,348.902946 C2517.26663,342.923714 2506.06675,335.948047 2490.2,327.975737 C2474.33325,320.003426 2462.33337,311.167582 2454.2,301.467938 C2446.06663,291.768294 2442,279.012788 2442,263.20104 C2442,247.389291 2447.79994,233.903002 2459.4,222.741768 C2471.00006,211.580533 2486.33324,206 2505.4,206 C2524.46676,206 2544.66656,216.363848 2566,237.091854 Z M3034,137 L2950.47458,436 L2940.53107,436 L2857.80113,217.929333 L2773.48023,436 L2763.93446,436 L2682,137 L2717.39887,137 L2773.48023,343.509333 L2853.02825,137 L2862.57401,137 L2941.32655,343.908 L2998.60113,137 L3034,137 Z M3290,325.982669 L3100.33096,325.982669 C3101.65362,349.8996 3109.65562,369.099292 3124.33719,383.582322 C3139.01876,398.065353 3156.54379,405.306759 3176.91281,405.306759 C3211.5666,405.306759 3238.01948,388.166549 3256.27224,353.885615 L3284.04804,368.235702 C3271.615,391.355402 3256.93366,408.429177 3240.00356,419.457539 C3223.07346,430.485901 3202.83701,436 3179.29359,436 C3146.75607,436 3119.90639,424.772498 3098.74377,402.317158 C3077.58115,379.861817 3067,352.822804 3067,321.199307 C3067,289.57581 3077.64728,262.470361 3098.94217,239.882149 C3120.23706,217.293937 3146.6238,206 3178.1032,206 C3209.5826,206 3235.90322,216.696022 3257.06584,238.088388 C3278.22846,259.480754 3289.20641,288.778555 3290,325.982669 Z M3254,297 C3250.01062,278.396303 3240.96816,263.912214 3226.87234,253.547297 C3212.77653,243.182381 3196.55328,238 3178.20213,238 C3140.9679,238 3116.2341,257.66647 3104,297 L3254,297 Z M3371.14286,243.554688 C3393.62974,218.585813 3420.6136,206.101563 3452.09524,206.101563 C3483.57688,206.101563 3510.09778,217.324107 3531.65873,239.769531 C3553.21968,262.214956 3564,289.242029 3564,320.851562 C3564,352.461096 3553.02127,379.554575 3531.06349,402.132812 C3509.10571,424.71105 3482.58481,436 3451.5,436 C3420.41519,436 3393.62974,422.45326 3371.14286,395.359375 L3371.14286,428.828125 L3339,428.828125 L3339,130 L3371.14286,130 L3371.14286,243.554688 Z M3449.80098,405 C3472.35638,405 3491.52818,396.620036 3507.31695,379.859857 C3523.10573,363.099679 3531,343.479922 3531,321 C3531,298.520078 3523.30475,278.900321 3507.914,262.140143 C3492.52326,245.379964 3473.28513,237 3450.19902,237 C3427.11291,237 3407.80843,244.847903 3392.28501,260.543943 C3376.76159,276.239983 3369,295.992755 3369,319.80285 C3369,343.612946 3376.82793,363.764763 3392.48403,380.258907 C3408.14013,396.753052 3427.24559,405 3449.80098,405 Z" id="CreatorsWeb" fill="#FFFFFF" fill-rule="nonzero"></path>
    </g>
</svg>