<?xml version="1.0" encoding="UTF-8"?>
<svg id="home-logo" class="img-fluid" version="1.1" viewBox="0 0 237.09 237.09" xml:space="preserve" xmlns="http://www.w3.org/2000/svg">
  <g transform="translate(13.053 -32.117)">
    <g transform="matrix(-.00057959 -.26458 .26458 -.00057959 -26.51 283.24)" fill-opacity="0">
      <path d="m950.74 514.44a444.04 444.04 0 0 0-443.07-445.02 444.04 444.04 0 0 0-445.01 443.07 444.04 444.04 0 0 0 443.07 445.01 444.04 444.04 0 0 0 445.02-443.07zm-3.9998-0.9736a220.02 220.02 0 0 1-110.05 190 220.02 220.02 0 0 1 0.0398 0.54696 220.02 220.02 0 0 1-220.02 220.02 220.02 220.02 0 0 1-110.46-29.801 220.02 220.02 0 0 1-109.56 29.801 220.02 220.02 0 0 1-220.02-220.02 220.02 220.02 0 0 1 4e-3 -0.0664 220.02 220.02 0 0 1-110.02-190.48 220.02 220.02 0 0 1 110.03-189.98 220.02 220.02 0 0 1-0.0144-0.56058 220.02 220.02 0 0 1 220.02-220.02 220.02 220.02 0 0 1 110.01 30.046 220.02 220.02 0 0 1 110.01-30.046 220.02 220.02 0 0 1 220.02 220.02 220.02 220.02 0 0 1-0.0383 0.54484 220.02 220.02 0 0 1 110.05 190zm-110.05-190a220.02 220.02 0 0 0-109.97-30.022 220.02 220.02 0 0 0-110.01 30.044 220.02 220.02 0 0 1 109.97 189.43 220.02 220.02 0 0 0 110.01-189.45zm-110.01 189.45a220.02 220.02 0 0 1-0.99925 0.54664 220.02 220.02 0 0 1 1.0008 0.54711 220.02 220.02 0 0 0 0.0383-0.54679 220.02 220.02 0 0 0-0.0398-0.54696zm2e-3 1.0938a220.02 220.02 0 0 1-110.01 189.45 220.02 220.02 0 0 1 0.0341 0.47663 220.02 220.02 0 0 0 110.02 29.548 220.02 220.02 0 0 0 109.97-30.025 220.02 220.02 0 0 0-110.01-189.45zm-109.98 189.93a220.02 220.02 0 0 1-0.44476-0.25292 220.02 220.02 0 0 1-109.56 29.801 220.02 220.02 0 0 1-110.01-29.544 220.02 220.02 0 0 0-4e-3 0.0664 220.02 220.02 0 0 0 109.56 190.22 220.02 220.02 0 0 0 110.46-190.22 220.02 220.02 0 0 0-6e-3 -0.0703zm-220.01 4e-3a220.02 220.02 0 0 1 0.0383-0.52531 220.02 220.02 0 0 1-0.49082 0.26846 220.02 220.02 0 0 0 0.45256 0.25685zm-0.45256-0.25685a220.02 220.02 0 0 1-109.55-189.66 220.02 220.02 0 0 0-110.02 189.92 220.02 220.02 0 0 0 110.01 29.542 220.02 220.02 0 0 0 109.56-29.799zm-109.55-189.66a220.02 220.02 0 0 1 0.55732-0.30542 220.02 220.02 0 0 1-0.56766-0.32156 220.02 220.02 0 0 0-4e-3 0.0664 220.02 220.02 0 0 0 0.0144 0.56058zm-0.0103-0.62698a220.02 220.02 0 0 1 110.01-189.91 220.02 220.02 0 0 0-110.01-30.046 220.02 220.02 0 0 0-110 30.038 220.02 220.02 0 0 0 110 189.92zm110.01-189.91a220.02 220.02 0 0 1 0.0137 8e-3 220.02 220.02 0 0 1 3e-5 -0.0156 220.02 220.02 0 0 0-0.0137 8e-3zm0.0137-8e-3a220.02 220.02 0 0 1 110-30.036 220.02 220.02 0 0 1 109.97 30.022 220.02 220.02 0 0 0 0.0383-0.54679 220.02 220.02 0 0 0-110.01-189.98 220.02 220.02 0 0 0-110.01 189.98 220.02 220.02 0 0 0 0.0144 0.56058zm219.97-0.0142a220.02 220.02 0 0 1-4e-3 0.0449 220.02 220.02 0 0 1 0.043-0.0233 220.02 220.02 0 0 0-0.039-0.0216zm-4e-3 0.0449a220.02 220.02 0 0 0-109.93 189.37 220.02 220.02 0 0 0 109.93-189.37zm-109.93 189.37a220.02 220.02 0 0 1-0.0821 0.0428 220.02 220.02 0 0 1 0.0341 0.47469 220.02 220.02 0 0 0 0.01 6e-3 220.02 220.02 0 0 1 0.0383-0.52336zm-0.0383 0.52336a220.02 220.02 0 0 0-4e-3 0.0664 220.02 220.02 0 0 0 0.0144 0.55862 220.02 220.02 0 0 1 0.55731-0.30542 220.02 220.02 0 0 1-0.56766-0.3196zm0.56766 0.3196a220.02 220.02 0 0 0 109.44 29.222 220.02 220.02 0 0 0 108.97-29.476 220.02 220.02 0 0 0-108.97-29.477 220.02 220.02 0 0 0-109.44 29.731zm-0.55731 0.30542a220.02 220.02 0 0 0-0.0137 8e-3 220.02 220.02 0 0 1 0.0136 8e-3 220.02 220.02 0 0 1 4e-5 -0.0156zm-4e-5 0.0156a220.02 220.02 0 0 0 109.55 189.65 220.02 220.02 0 0 0 0.41065-0.22371 220.02 220.02 0 0 0-109.96-189.42zm-0.0136-8e-3a220.02 220.02 0 0 0-0.039-0.0216 220.02 220.02 0 0 1-4e-3 0.0449 220.02 220.02 0 0 1 0.043-0.0233zm-0.043 0.0233a220.02 220.02 0 0 0-109.92 189.36 220.02 220.02 0 0 0 109.92-189.36zm4e-3 -0.0449a220.02 220.02 0 0 0 0.0383-0.54484 220.02 220.02 0 0 0-6e-3 -0.0723 220.02 220.02 0 0 1-0.44085-0.25097 220.02 220.02 0 0 1-0.59056 0.32293 220.02 220.02 0 0 1 0.99881 0.54516zm-0.99881-0.54516a220.02 220.02 0 0 0-108.97-29.477 220.02 220.02 0 0 0-109.44 29.731 220.02 220.02 0 0 0 109.44 29.222 220.02 220.02 0 0 0 108.97-29.476zm0.59056-0.32293a220.02 220.02 0 0 0 0.40674-0.22372 220.02 220.02 0 0 0-109.96-189.42 220.02 220.02 0 0 0 109.55 189.65z" fill-opacity="1" stroke-width="0"/>
      </path>
    </g>
  </g>
</svg>
