<?xml version="1.0" encoding="UTF-8"?>
<svg id="home-logo" class="img-fluid" version="1.0" viewBox="0 0 782.5 800" xmlns="http://www.w3.org/2000/svg">
 <defs>
  <mask id="mask3" maskUnits="userSpaceOnUse">
   <circle transform="rotate(90.126)" cx="498.9" cy="-501.09" r="391.25" fill="#fff" fill-opacity=".99123" stroke-width="0"/>
  </mask>
 </defs>
 <g transform="rotate(269.87 396.12 495.13)" fill-opacity="0" stroke="#000" stroke-width="8">
  <path transform="translate(.02081 -9.4999)" d="m941.74 500.97c2.2338-167.24-100.26-329.83-252.12-399.94-150.06-73.379-340.56-50.355-468.83 56.657-130.94 104.39-191.72 287.01-149.44 449.05 38.543 162.44 177.12 294.98 341.12 326.25 163.8 35.026 343.58-33.873 442.01-169.4 56.194-75.249 87.251-168.7 87.255-262.62zm-498.89 415.5c-108.48-2.5061-203.23-70.959-273.63-148.53-39.424-41.685-68.442-93.822-74.145-151.66-14.336-120.07 10.107-246.44 73.155-350.08 36.203-52.623 90.598-90.307 144.4-123.39 106.83-64.035 244.66-75.793 358.04-21.825 166.76 77.02 283.51 261.95 265.98 446.98-10.124 115.04-87.823 215.79-188.6 268.45-93.345 51.04-200.04 72.073-305.21 80.059zm387.14-606.46c-66.304-39.757-153.69-39.748-219.98 0.022 66.803 37.784 110.28 112.68 109.97 189.43 66.934-37.941 110.24-112.5 110.01-189.45zm-110.01 189.45c-2.7068-0.0186 1.0553 2.624 0 0zm2e-3 1.0938c0.61276 77.083-43.966 151.67-109.98 189.93 66.448 39.355 153.71 39.166 219.99-0.47514 0.27923-76.834-43.142-151.61-110.01-189.45zm-109.98 189.93c-66.265 38.562-153.67 39.573-220.02 0.0707-0.6786 76.935 42.675 152.21 109.56 190.22 67.285-37.863 110.96-113.09 110.45-190.29zm-220.01 6e-3c0.7638-1.1782-1.3897-0.0171 0 0zm-0.45451-0.25881c-66.714-37.932-110.03-112.92-109.55-189.66-66.969 37.85-110.5 113-110.02 189.92 66.418 39.275 153.24 39.174 219.57-0.25958zm-109.55-189.66c1.6315-0.0328-0.76055-1.3282 0 0zm-0.0103-0.62698c-0.47914-76.918 43.047-152.06 110.01-189.91-66.305-39.773-153.7-39.776-220.01-7e-3 -0.39461 77.096 42.917 151.89 110 189.92zm110.01-189.91c0.0202 0.0356 0.0207-0.0348 0 0zm0.0137-8e-3c66.164-40.409 154.66-38.658 220.01-0.55907 0.50214-76.941-43.03-152.12-110.01-189.98-67.226 38.079-110.67 113.27-110 190.54zm219.97-0.0123c-0.0662 0.0999 0.1144 2e-3 0 0zm-4e-3 0.0449c-66.766 37.785-110.22 112.65-109.93 189.36 66.811-37.85 110.19-112.57 109.93-189.36zm-109.93 189.36c-0.41459 0.0969 0.27353 1.2591 0 0zm-0.0383 0.52726c-0.74288 1.4064 1.6493 0.0145 0 0zm0.56765 0.32155c66.039 38.838 152.46 38.737 218.41-0.25788-66.301-39.132-152.18-39.04-218.41 0.25788zm-0.5573 0.30347c-0.0411 4e-5 0.0206 0.036 0 0zm-4e-5 0.0156c-0.47517 76.594 43.013 152.62 109.96 189.42 0.22525-76.918-43.039-151.46-109.96-189.42zm-0.0136-8e-3c-0.0564-0.0993-0.0662 0.1067 0 0zm-0.043 0.0233c-66.766 37.785-110.22 112.65-109.93 189.36 66.811-37.85 110.19-112.57 109.93-189.36zm4e-3 -0.0449c0.65856-1.6392-2.6308-0.36969 0 0zm-1.0027-0.54712c-65.976-39.112-152.52-39.007-218.41 0.25594 66.309 38.856 152.17 38.766 218.41-0.25594zm0.59056-0.32292c1.4398-76.334-42.882-151.95-109.55-189.65-0.38686 76.913 42.715 151.55 109.55 189.65z" fill-opacity=".99123" mask="url(#mask3)" stroke-width="0"/>
 </g>
</svg>
