<?xml version="1.0" encoding="UTF-8"?>
<svg id="home-logo" class="img-fluid" width="2611px" height="1636px" viewBox="0 0 2611 1636" version="1.1" xmlns="http://www.w3.org/2000/svg" xmlns:xlink="http://www.w3.org/1999/xlink">
    <defs>
        <path d="M578.401499,1112.6918 C853.004731,1112.6918 935.344173,1013.26388 1048.00165,780.591799 C1063.13802,749.330591 1112.70987,587.748511 1112.70987,551.592264 C1112.70987,240.832784 889.160979,-12.6678309 578.401499,-12.6678309 C267.642019,-12.6678309 15.7216857,239.252502 15.7216857,550.011982 C15.7216857,860.771462 267.642019,1112.6918 578.401499,1112.6918 Z" id="path-1"></path>
    </defs>
    <g id="logo-main" stroke="none" stroke-width="1" fill="none" fill-rule="evenodd">
        <g id="logo" transform="translate(754.000000, 0.000000)">
            <g id="Group" transform="translate(552.022950, 566.467715) rotate(-90.130000) translate(-552.022950, -566.467715) translate(-12.977050, 15.967715)">
                <g id="Clipped" transform="translate(0.193480, 0.223718)">
                    <mask id="mask-2" fill="white">
                        <use xlink:href="#path-1"></use>
                    </mask>
                    <g id="Oval" transform="translate(564.215780, 550.011982) rotate(90.126000) translate(-564.215780, -550.011982) "></g>
                    <path d="M1199.51899,551.929237 C1202.73155,311.411481 1055.32915,77.5811661 836.93028,-23.24818 C621.1201,-128.778869 347.15076,-95.6666899 162.678071,58.2336095 C-25.6345033,208.363055 -113.045824,470.999701 -52.2404498,704.039028 C3.19052285,937.653619 202.48632,1128.26725 438.344439,1173.23849 C673.914927,1223.61146 932.4672,1124.52372 1074.02522,929.614309 C1154.84114,821.394262 1199.50605,686.996841 1199.5118,551.924923 L1199.51899,551.929237 Z M482.035718,1149.49016 C326.024201,1145.88024 189.75861,1047.43407 88.5121977,935.874616 C31.8142067,875.924947 -9.91829886,800.943638 -18.1201212,717.763382 C-38.7375724,545.083599 -3.58464545,363.343412 87.08842,214.292586 C139.1541,138.612331 217.382773,84.4167371 294.758618,36.8381141 C448.397173,-55.2544145 646.618664,-72.1642912 809.677162,5.45028813 C1049.5046,116.217315 1217.4097,382.176108 1192.19876,648.278717 C1177.63884,813.724559 1065.8953,958.619105 920.961926,1034.35257 C786.716949,1107.75622 633.272546,1138.00502 482.021336,1149.49016 L482.035718,1149.49016 Z M1038.80601,277.298343 C943.448984,220.121446 817.773999,220.134389 722.438421,277.329983 C818.511774,331.669393 881.038625,439.381769 880.592795,549.760493 C976.854548,495.195292 1039.13547,387.967575 1038.80601,277.30122 L1038.80601,277.298343 Z M880.595672,551.330675 C881.476918,662.188306 817.365561,769.456291 722.426915,824.480265 C817.989722,881.079023 943.486376,880.80721 1038.8095,823.796938 C1039.20915,713.297409 976.762505,605.757611 880.595672,551.337665 L880.595672,551.330675 Z M722.426915,824.480265 C627.127292,879.938562 501.424981,881.392541 406.003114,824.581942 C405.027179,935.226726 467.37656,1043.48416 563.567843,1098.1486 C660.334389,1043.69557 723.145995,935.507167 722.412534,824.480265 L722.426915,824.480265 Z M405.363837,824.116684 C309.41848,769.564426 247.123173,661.719739 247.81349,551.355397 C151.501402,605.789725 88.8968909,713.867394 89.5872073,824.490605 C185.106869,880.97431 309.970733,880.829056 405.363837,824.117288 L405.363837,824.116684 Z M247.798677,550.4537 C247.109597,439.833366 309.707119,331.767202 406.010578,277.332874 C310.653428,220.132965 184.965498,220.128651 89.6011575,277.322807 C89.0336454,388.199133 151.322639,495.764818 247.798677,550.458014 L247.798677,550.4537 Z M406.03028,277.322706 C501.18465,219.206791 628.455993,221.725007 722.439701,276.517337 C723.161858,165.863925 660.555707,57.7445491 564.2278,3.29583926 C467.546105,58.059506 405.066714,166.196139 406.03028,277.322706 L406.03028,277.322706 Z M722.376422,277.368252 C626.35628,331.7091 563.862507,439.376894 564.279574,549.698091 C660.364432,495.263763 722.750343,387.804502 722.376422,277.368252 Z M565.040863,550.918815 C660.015463,606.774045 784.302625,606.628791 879.149229,550.547943 C783.797831,494.269894 660.290151,494.402205 565.040863,550.918815 L565.040863,550.918815 Z M564.239319,551.377689 C563.555949,661.532059 626.098864,770.869556 722.380571,823.793817 C722.703258,713.173482 660.482376,605.970214 564.239319,551.377689 Z M564.15792,551.399692 C468.137778,605.74054 405.644005,713.408334 406.061071,823.729531 C502.14593,769.295203 564.531841,661.835942 564.15792,551.399692 Z M562.72163,550.548273 C467.837634,494.298988 343.373579,494.449995 248.613265,550.916356 C343.976167,606.797472 467.45796,606.668038 562.72163,550.548273 Z M563.570949,550.083863 C565.641611,440.303414 501.899804,331.555562 406.020602,277.336958 C405.464235,387.950102 467.451575,495.289995 563.570949,550.083863 Z" id="Shape" fill-opacity="0.99123" fill="#FFFFFF" fill-rule="nonzero" mask="url(#mask-2)"></path>
                </g>
            </g>
        </g>
        <path d="M287,1575.4375 C255.642436,1615.8127 212.592866,1636 157.85,1636 C111.61088,1636 73.743203,1621.39077 44.2458333,1592.17188 C14.7484636,1562.95298 0,1526.03147 0,1481.40625 C0,1453.78111 6.84275565,1428.28137 20.5284722,1404.90625 C34.2141888,1381.53113 53.1480272,1363.20319 77.3305556,1349.92188 C101.513084,1336.64056 127.621851,1330 155.657639,1330 C183.693427,1330 208.805676,1335.37885 230.995139,1346.13672 C253.184602,1356.89459 271.719833,1372.63271 286.601389,1393.35156 L260.293056,1413.67188 C232.65588,1380.20296 198.508537,1363.46875 157.85,1363.46875 C124.632241,1363.46875 95.9989628,1375.15613 71.9493056,1398.53125 C47.8996483,1421.90637 35.875,1450.52717 35.875,1484.39453 C35.875,1518.26189 47.6339102,1546.55067 71.1520833,1569.26172 C94.6702565,1591.97277 125.163702,1603.32812 162.633333,1603.32812 C200.102965,1603.32812 232.65588,1587.25797 260.293056,1555.11719 L287,1575.4375 Z M424,1415.73703 L406.864662,1443.53667 C402.348348,1441.15383 397.964934,1439.96243 393.714286,1439.96243 C385.478656,1439.96243 378.040133,1443.99996 371.398496,1452.07513 C364.756859,1460.15031 359.775706,1470.74054 356.454887,1483.84615 C353.134069,1496.95176 351.473684,1520.58122 351.473684,1554.73524 L351.473684,1629 L318,1629 L318,1412.55993 L351.473684,1412.55993 L351.473684,1435.99106 C358.115321,1426.19494 364.823274,1418.91416 371.597744,1414.14848 C378.372214,1409.3828 386.076398,1407 394.710526,1407 C403.344655,1407 413.107715,1409.91231 424,1415.73703 Z M666,1525.98267 L476.330961,1525.98267 C477.653625,1549.8996 485.655621,1569.09929 500.337189,1583.58232 C515.018757,1598.06535 532.543789,1605.30676 552.912811,1605.30676 C587.566603,1605.30676 614.019482,1588.16655 632.272242,1553.88562 L660.048043,1568.2357 C647.615003,1591.3554 632.933655,1608.42918 616.003559,1619.45754 C599.073462,1630.4859 578.83701,1636 555.293594,1636 C522.756065,1636 495.906393,1624.7725 474.743772,1602.31716 C453.581152,1579.86182 443,1552.8228 443,1521.19931 C443,1489.57581 453.647284,1462.47036 474.942171,1439.88215 C496.237058,1417.29394 522.623805,1406 554.103203,1406 C585.582601,1406 611.903216,1416.69602 633.065836,1438.08839 C654.228457,1459.48075 665.206406,1488.77855 666,1525.98267 Z M630,1497 C626.010618,1478.3963 616.968156,1463.91221 602.87234,1453.5473 C588.776525,1443.18238 572.553283,1438 554.202128,1438 C516.967899,1438 492.234104,1457.66647 480,1497 L630,1497 Z M927,1628.82496 L894.857143,1628.82496 L894.857143,1596.93588 C871.312052,1622.97876 844.195921,1636 813.507937,1636 C782.819952,1636 756.563601,1624.63963 734.738095,1601.91854 C712.912589,1579.19746 702,1552.09201 702,1520.60139 C702,1489.11076 712.978726,1462.13818 734.936508,1439.68284 C756.89429,1417.2275 783.679736,1406 815.293651,1406 C846.907565,1406 873.428464,1418.88837 894.857143,1444.66551 L894.857143,1411.58059 L927,1411.58059 L927,1628.82496 Z M816.199017,1606 C838.223697,1606 857.196481,1598.0477 873.117936,1582.14286 C889.039392,1566.23802 897,1546.42353 897,1522.69881 C897,1498.97409 889.172068,1479.09333 873.515971,1463.05595 C857.859873,1447.01857 838.688074,1439 816,1439 C793.311926,1439 774.140127,1447.28365 758.484029,1463.85119 C742.827932,1480.41873 735,1499.96814 735,1522.5 C735,1545.03186 742.960608,1564.58127 758.882064,1581.14881 C774.803519,1597.71635 793.908979,1606 816.199017,1606 Z M1083,1440.36719 L1039.8,1440.36719 L1039.8,1592.57031 C1039.8,1598.14847 1040.59999,1601.53515 1042.2,1602.73047 C1043.80001,1603.92578 1047.79997,1604.52344 1054.2,1604.52344 L1073.4,1604.52344 L1073.4,1632.8125 C1060.59994,1634.93751 1050.8667,1636 1044.2,1636 C1031.39994,1636 1021.93336,1632.87894 1015.8,1626.63672 C1009.66664,1620.3945 1006.6,1610.50007 1006.6,1596.95312 L1006.6,1440.36719 L969,1440.36719 L969,1411.67969 L1006.6,1411.67969 L1006.6,1330 L1039.8,1330 L1039.8,1411.67969 L1083,1411.67969 L1083,1440.36719 Z M1220.69841,1406 C1251.9155,1406 1278.4364,1417.29394 1300.2619,1439.88215 C1322.08741,1462.47036 1333,1489.57581 1333,1521.19931 C1333,1552.8228 1322.21968,1579.86182 1300.65873,1602.31716 C1279.09778,1624.7725 1252.4446,1636 1220.69841,1636 C1188.95222,1636 1162.23291,1624.7725 1140.53968,1602.31716 C1118.84645,1579.86182 1108,1552.8228 1108,1521.19931 C1108,1489.57581 1118.91259,1462.47036 1140.7381,1439.88215 C1162.5636,1417.29394 1189.21677,1406 1220.69841,1406 Z M1221.5,1605 C1243.49511,1605 1262.24367,1596.9721 1277.74625,1580.91607 C1293.24883,1564.86003 1301,1545.48692 1301,1522.79616 C1301,1500.1054 1293.11633,1480.46691 1277.34875,1463.8801 C1261.58117,1447.29328 1242.89886,1439 1221.30125,1439 C1199.70364,1439 1181.08758,1447.29328 1165.4525,1463.8801 C1149.81742,1480.46691 1142,1500.17175 1142,1522.9952 C1142,1545.81866 1149.55242,1565.19177 1164.6575,1581.11511 C1179.76258,1597.03845 1198.70989,1605 1221.5,1605 Z M1471,1415.73703 L1453.86466,1443.53667 C1449.34835,1441.15383 1444.96493,1439.96243 1440.71429,1439.96243 C1432.47866,1439.96243 1425.04013,1443.99996 1418.3985,1452.07513 C1411.75686,1460.15031 1406.77571,1470.74054 1403.45489,1483.84615 C1400.13407,1496.95176 1398.47368,1520.58122 1398.47368,1554.73524 L1398.47368,1629 L1365,1629 L1365,1412.55993 L1398.47368,1412.55993 L1398.47368,1435.99106 C1405.11532,1426.19494 1411.82327,1418.91416 1418.59774,1414.14848 C1425.37221,1409.3828 1433.0764,1407 1441.71053,1407 C1450.34465,1407 1460.10771,1409.91231 1471,1415.73703 Z M1613,1437.09185 L1591.8,1459.0156 C1576.06659,1444.3997 1561.66673,1437.09185 1548.6,1437.09185 C1540.33329,1437.09185 1533.40003,1439.68282 1527.8,1444.86482 C1522.19997,1450.04682 1519.4,1456.42457 1519.4,1463.99827 C1519.4,1471.57196 1522.5333,1478.21545 1528.8,1483.92894 C1535.0667,1489.64243 1546.19992,1496.68453 1562.2,1505.05546 C1578.20008,1513.42639 1590.53329,1522.66084 1599.2,1532.7591 C1607.86671,1542.85736 1612.2,1555.21425 1612.2,1569.83016 C1612.2,1588.43221 1605.7334,1604.11085 1592.8,1616.86655 C1579.8666,1629.62225 1563.93343,1636 1545,1636 C1518.59987,1636 1496.60009,1624.83893 1479,1602.51646 L1499.8,1579.39688 C1514.20007,1596.13873 1528.86659,1604.50953 1543.8,1604.50953 C1553.93338,1604.50953 1562.59996,1601.18779 1569.8,1594.54419 C1577.00004,1587.9006 1580.6,1580.12772 1580.6,1571.2253 C1580.6,1562.32289 1577.33337,1554.88218 1570.8,1548.90295 C1564.26663,1542.92371 1553.06675,1535.94805 1537.2,1527.97574 C1521.33325,1520.00343 1509.33337,1511.16758 1501.2,1501.46794 C1493.06663,1491.76829 1489,1479.01279 1489,1463.20104 C1489,1447.38929 1494.79994,1433.903 1506.4,1422.74177 C1518.00006,1411.58053 1533.33324,1406 1552.4,1406 C1571.46676,1406 1591.66656,1416.36385 1613,1437.09185 Z M2081,1337 L1997.47458,1636 L1987.53107,1636 L1904.80113,1417.92933 L1820.48023,1636 L1810.93446,1636 L1729,1337 L1764.39887,1337 L1820.48023,1543.50933 L1900.02825,1337 L1909.57401,1337 L1988.32655,1543.908 L2045.60113,1337 L2081,1337 Z M2337,1525.98267 L2147.33096,1525.98267 C2148.65362,1549.8996 2156.65562,1569.09929 2171.33719,1583.58232 C2186.01876,1598.06535 2203.54379,1605.30676 2223.91281,1605.30676 C2258.5666,1605.30676 2285.01948,1588.16655 2303.27224,1553.88562 L2331.04804,1568.2357 C2318.615,1591.3554 2303.93366,1608.42918 2287.00356,1619.45754 C2270.07346,1630.4859 2249.83701,1636 2226.29359,1636 C2193.75607,1636 2166.90639,1624.7725 2145.74377,1602.31716 C2124.58115,1579.86182 2114,1552.8228 2114,1521.19931 C2114,1489.57581 2124.64728,1462.47036 2145.94217,1439.88215 C2167.23706,1417.29394 2193.6238,1406 2225.1032,1406 C2256.5826,1406 2282.90322,1416.69602 2304.06584,1438.08839 C2325.22846,1459.48075 2336.20641,1488.77855 2337,1525.98267 Z M2301,1497 C2297.01062,1478.3963 2287.96816,1463.91221 2273.87234,1453.5473 C2259.77653,1443.18238 2243.55328,1438 2225.20213,1438 C2187.9679,1438 2163.2341,1457.66647 2151,1497 L2301,1497 Z M2418.14286,1443.55469 C2440.62974,1418.58581 2467.6136,1406.10156 2499.09524,1406.10156 C2530.57688,1406.10156 2557.09778,1417.32411 2578.65873,1439.76953 C2600.21968,1462.21496 2611,1489.24203 2611,1520.85156 C2611,1552.4611 2600.02127,1579.55457 2578.06349,1602.13281 C2556.10571,1624.71105 2529.58481,1636 2498.5,1636 C2467.41519,1636 2440.62974,1622.45326 2418.14286,1595.35938 L2418.14286,1628.82812 L2386,1628.82812 L2386,1330 L2418.14286,1330 L2418.14286,1443.55469 Z M2496.80098,1605 C2519.35638,1605 2538.52818,1596.62004 2554.31695,1579.85986 C2570.10573,1563.09968 2578,1543.47992 2578,1521 C2578,1498.52008 2570.30475,1478.90032 2554.914,1462.14014 C2539.52326,1445.37996 2520.28513,1437 2497.19902,1437 C2474.11291,1437 2454.80843,1444.8479 2439.28501,1460.54394 C2423.76159,1476.23998 2416,1495.99276 2416,1519.80285 C2416,1543.61295 2423.82793,1563.76476 2439.48403,1580.25891 C2455.14013,1596.75305 2474.24559,1605 2496.80098,1605 Z" id="CreatorsWeb" fill="#FFFFFF" fill-rule="nonzero"></path>
    </g>
</svg>